<mxfile host="drawio-plugin" modified="2022-01-09T05:43:20.158Z" agent="5.0 (Windows NT 6.2; Win64; x64) AppleWebKit/537.36 (KHTML, like Gecko) Chrome/84.0.4147.105 Safari/537.36" etag="spyS385LU3o5LdArBjMZ" version="14.7.4" type="embed" pages="2"><diagram id="YYlQb703K9uweQFDKrVu" name="UseCaseDiagram"><mxGraphModel dx="884" dy="753" grid="1" gridSize="10" guides="1" tooltips="1" connect="1" arrows="1" fold="1" page="1" pageScale="1" pageWidth="827" pageHeight="1169" math="0" shadow="0"><root><mxCell id="8_ItV2GrVfPEZrBjl0NE-0"/><mxCell id="8_ItV2GrVfPEZrBjl0NE-1" parent="8_ItV2GrVfPEZrBjl0NE-0"/><mxCell id="8_ItV2GrVfPEZrBjl0NE-2" value="Member" style="shape=umlActor;verticalLabelPosition=bottom;verticalAlign=top;html=1;" parent="8_ItV2GrVfPEZrBjl0NE-1" vertex="1"><mxGeometry x="10" y="450" width="30" height="60" as="geometry"/></mxCell><mxCell id="8_ItV2GrVfPEZrBjl0NE-3" value="Librarian" style="shape=umlActor;verticalLabelPosition=bottom;verticalAlign=top;html=1;" parent="8_ItV2GrVfPEZrBjl0NE-1" vertex="1"><mxGeometry x="780" y="450" width="30" height="60" as="geometry"/></mxCell><mxCell id="8_ItV2GrVfPEZrBjl0NE-4" value="Add Book" style="ellipse;whiteSpace=wrap;html=1;verticalAlign=top;" parent="8_ItV2GrVfPEZrBjl0NE-1" vertex="1"><mxGeometry x="730" y="50" width="90" height="30" as="geometry"/></mxCell><mxCell id="8_ItV2GrVfPEZrBjl0NE-6" value="Remove Book" style="ellipse;whiteSpace=wrap;html=1;" parent="8_ItV2GrVfPEZrBjl0NE-1" vertex="1"><mxGeometry x="700" y="110" width="80" height="30" as="geometry"/></mxCell><mxCell id="8_ItV2GrVfPEZrBjl0NE-8" value="Edit Book" style="ellipse;whiteSpace=wrap;html=1;" parent="8_ItV2GrVfPEZrBjl0NE-1" vertex="1"><mxGeometry x="670" y="170" width="80" height="30" as="geometry"/></mxCell><mxCell id="8_ItV2GrVfPEZrBjl0NE-9" value="" style="endArrow=none;html=1;rounded=0;entryX=1;entryY=1;entryDx=0;entryDy=0;exitX=0.5;exitY=0;exitDx=0;exitDy=0;exitPerimeter=0;" parent="8_ItV2GrVfPEZrBjl0NE-1" source="8_ItV2GrVfPEZrBjl0NE-3" target="8_ItV2GrVfPEZrBjl0NE-4" edge="1"><mxGeometry width="50" height="50" relative="1" as="geometry"><mxPoint x="820" y="450" as="sourcePoint"/><mxPoint x="850" y="80" as="targetPoint"/></mxGeometry></mxCell><mxCell id="8_ItV2GrVfPEZrBjl0NE-10" value="" style="endArrow=none;html=1;rounded=0;entryX=1;entryY=0.5;entryDx=0;entryDy=0;" parent="8_ItV2GrVfPEZrBjl0NE-1" source="8_ItV2GrVfPEZrBjl0NE-3" target="8_ItV2GrVfPEZrBjl0NE-6" edge="1"><mxGeometry width="50" height="50" relative="1" as="geometry"><mxPoint x="570" y="300" as="sourcePoint"/><mxPoint x="620" y="250" as="targetPoint"/></mxGeometry></mxCell><mxCell id="8_ItV2GrVfPEZrBjl0NE-11" value="" style="endArrow=none;html=1;rounded=0;entryX=1;entryY=0.5;entryDx=0;entryDy=0;exitX=0.5;exitY=0;exitDx=0;exitDy=0;exitPerimeter=0;" parent="8_ItV2GrVfPEZrBjl0NE-1" source="8_ItV2GrVfPEZrBjl0NE-3" target="8_ItV2GrVfPEZrBjl0NE-8" edge="1"><mxGeometry width="50" height="50" relative="1" as="geometry"><mxPoint x="820" y="450" as="sourcePoint"/><mxPoint x="680" y="270" as="targetPoint"/></mxGeometry></mxCell><mxCell id="8_ItV2GrVfPEZrBjl0NE-12" value="Add Book Item" style="ellipse;whiteSpace=wrap;html=1;" parent="8_ItV2GrVfPEZrBjl0NE-1" vertex="1"><mxGeometry x="450" y="50" width="90" height="30" as="geometry"/></mxCell><mxCell id="8_ItV2GrVfPEZrBjl0NE-13" value="Remove Book Item" style="ellipse;whiteSpace=wrap;html=1;" parent="8_ItV2GrVfPEZrBjl0NE-1" vertex="1"><mxGeometry x="445" y="105" width="100" height="40" as="geometry"/></mxCell><mxCell id="8_ItV2GrVfPEZrBjl0NE-14" value="Edit Book Item" style="ellipse;whiteSpace=wrap;html=1;" parent="8_ItV2GrVfPEZrBjl0NE-1" vertex="1"><mxGeometry x="450" y="170" width="90" height="30" as="geometry"/></mxCell><mxCell id="8_ItV2GrVfPEZrBjl0NE-17" value="Include" style="endArrow=block;endSize=16;endFill=0;html=1;rounded=0;exitX=0;exitY=0.5;exitDx=0;exitDy=0;entryX=1;entryY=0.5;entryDx=0;entryDy=0;" parent="8_ItV2GrVfPEZrBjl0NE-1" source="8_ItV2GrVfPEZrBjl0NE-4" target="8_ItV2GrVfPEZrBjl0NE-12" edge="1"><mxGeometry width="160" relative="1" as="geometry"><mxPoint x="400" y="310" as="sourcePoint"/><mxPoint x="560" y="310" as="targetPoint"/></mxGeometry></mxCell><mxCell id="8_ItV2GrVfPEZrBjl0NE-18" value="Include" style="endArrow=block;endSize=16;endFill=0;html=1;rounded=0;exitX=0;exitY=0.5;exitDx=0;exitDy=0;entryX=1;entryY=0.5;entryDx=0;entryDy=0;" parent="8_ItV2GrVfPEZrBjl0NE-1" source="8_ItV2GrVfPEZrBjl0NE-6" target="8_ItV2GrVfPEZrBjl0NE-13" edge="1"><mxGeometry width="160" relative="1" as="geometry"><mxPoint x="720" y="110" as="sourcePoint"/><mxPoint x="520" y="110" as="targetPoint"/></mxGeometry></mxCell><mxCell id="8_ItV2GrVfPEZrBjl0NE-19" value="Include" style="endArrow=block;endSize=16;endFill=0;html=1;rounded=0;exitX=0;exitY=0.5;exitDx=0;exitDy=0;entryX=1;entryY=0.5;entryDx=0;entryDy=0;" parent="8_ItV2GrVfPEZrBjl0NE-1" source="8_ItV2GrVfPEZrBjl0NE-8" target="8_ItV2GrVfPEZrBjl0NE-14" edge="1"><mxGeometry width="160" relative="1" as="geometry"><mxPoint x="680" y="250" as="sourcePoint"/><mxPoint x="480" y="250" as="targetPoint"/></mxGeometry></mxCell><mxCell id="8_ItV2GrVfPEZrBjl0NE-20" value="Register new account" style="ellipse;whiteSpace=wrap;html=1;" parent="8_ItV2GrVfPEZrBjl0NE-1" vertex="1"><mxGeometry x="640" y="240" width="100" height="40" as="geometry"/></mxCell><mxCell id="8_ItV2GrVfPEZrBjl0NE-21" value="" style="endArrow=none;html=1;rounded=0;entryX=1;entryY=0.5;entryDx=0;entryDy=0;exitX=0.5;exitY=0;exitDx=0;exitDy=0;exitPerimeter=0;" parent="8_ItV2GrVfPEZrBjl0NE-1" source="8_ItV2GrVfPEZrBjl0NE-3" target="8_ItV2GrVfPEZrBjl0NE-20" edge="1"><mxGeometry width="50" height="50" relative="1" as="geometry"><mxPoint x="820" y="450" as="sourcePoint"/><mxPoint x="730" y="380" as="targetPoint"/></mxGeometry></mxCell><mxCell id="8_ItV2GrVfPEZrBjl0NE-22" value="Issure library card" style="ellipse;whiteSpace=wrap;html=1;" parent="8_ItV2GrVfPEZrBjl0NE-1" vertex="1"><mxGeometry x="450" y="240" width="100" height="40" as="geometry"/></mxCell><mxCell id="8_ItV2GrVfPEZrBjl0NE-23" value="Extends" style="endArrow=block;endSize=16;endFill=0;html=1;rounded=0;exitX=1;exitY=0.5;exitDx=0;exitDy=0;entryX=0;entryY=0.5;entryDx=0;entryDy=0;" parent="8_ItV2GrVfPEZrBjl0NE-1" source="8_ItV2GrVfPEZrBjl0NE-22" target="8_ItV2GrVfPEZrBjl0NE-20" edge="1"><mxGeometry width="160" relative="1" as="geometry"><mxPoint x="560" y="310" as="sourcePoint"/><mxPoint x="720" y="310" as="targetPoint"/></mxGeometry></mxCell><mxCell id="8_ItV2GrVfPEZrBjl0NE-24" value="" style="endArrow=none;html=1;rounded=0;exitX=0.5;exitY=1;exitDx=0;exitDy=0;entryX=0.5;entryY=0;entryDx=0;entryDy=0;entryPerimeter=0;" parent="8_ItV2GrVfPEZrBjl0NE-1" source="8_ItV2GrVfPEZrBjl0NE-22" target="8_ItV2GrVfPEZrBjl0NE-3" edge="1"><mxGeometry width="50" height="50" relative="1" as="geometry"><mxPoint x="680" y="540" as="sourcePoint"/><mxPoint x="730" y="490" as="targetPoint"/></mxGeometry></mxCell><mxCell id="8_ItV2GrVfPEZrBjl0NE-25" value="Issue Book" style="ellipse;whiteSpace=wrap;html=1;" parent="8_ItV2GrVfPEZrBjl0NE-1" vertex="1"><mxGeometry x="550" y="560" width="80" height="35" as="geometry"/></mxCell><mxCell id="8_ItV2GrVfPEZrBjl0NE-26" value="" style="endArrow=none;html=1;rounded=0;entryX=0.5;entryY=0.5;entryDx=0;entryDy=0;entryPerimeter=0;exitX=1;exitY=0.5;exitDx=0;exitDy=0;" parent="8_ItV2GrVfPEZrBjl0NE-1" source="8_ItV2GrVfPEZrBjl0NE-25" target="8_ItV2GrVfPEZrBjl0NE-3" edge="1"><mxGeometry width="50" height="50" relative="1" as="geometry"><mxPoint x="520" y="450" as="sourcePoint"/><mxPoint x="570" y="400" as="targetPoint"/></mxGeometry></mxCell><mxCell id="8_ItV2GrVfPEZrBjl0NE-27" value="Checkout book" style="ellipse;whiteSpace=wrap;html=1;" parent="8_ItV2GrVfPEZrBjl0NE-1" vertex="1"><mxGeometry x="382.5" y="570" width="70" height="40" as="geometry"/></mxCell><mxCell id="8_ItV2GrVfPEZrBjl0NE-28" value="Include" style="endArrow=block;endSize=16;endFill=0;html=1;rounded=0;exitX=0;exitY=0.5;exitDx=0;exitDy=0;entryX=1;entryY=0.5;entryDx=0;entryDy=0;" parent="8_ItV2GrVfPEZrBjl0NE-1" source="8_ItV2GrVfPEZrBjl0NE-25" target="8_ItV2GrVfPEZrBjl0NE-27" edge="1"><mxGeometry width="160" relative="1" as="geometry"><mxPoint x="655" y="497.5" as="sourcePoint"/><mxPoint x="500" y="497.5" as="targetPoint"/></mxGeometry></mxCell><mxCell id="8_ItV2GrVfPEZrBjl0NE-29" value="Remove reservation" style="ellipse;whiteSpace=wrap;html=1;" parent="8_ItV2GrVfPEZrBjl0NE-1" vertex="1"><mxGeometry x="365" y="690" width="105" height="50" as="geometry"/></mxCell><mxCell id="8_ItV2GrVfPEZrBjl0NE-30" value="Renew Book" style="ellipse;whiteSpace=wrap;html=1;" parent="8_ItV2GrVfPEZrBjl0NE-1" vertex="1"><mxGeometry x="372.5" y="770" width="90" height="40" as="geometry"/></mxCell><mxCell id="8_ItV2GrVfPEZrBjl0NE-31" value="Reserve Book" style="ellipse;whiteSpace=wrap;html=1;" parent="8_ItV2GrVfPEZrBjl0NE-1" vertex="1"><mxGeometry x="372.5" y="830" width="90" height="40" as="geometry"/></mxCell><mxCell id="8_ItV2GrVfPEZrBjl0NE-32" value="View account" style="ellipse;whiteSpace=wrap;html=1;" parent="8_ItV2GrVfPEZrBjl0NE-1" vertex="1"><mxGeometry x="372.5" y="890" width="90" height="40" as="geometry"/></mxCell><mxCell id="8_ItV2GrVfPEZrBjl0NE-33" value="Return Book" style="ellipse;whiteSpace=wrap;html=1;" parent="8_ItV2GrVfPEZrBjl0NE-1" vertex="1"><mxGeometry x="372.5" y="960" width="90" height="40" as="geometry"/></mxCell><mxCell id="8_ItV2GrVfPEZrBjl0NE-34" value="" style="endArrow=none;html=1;rounded=0;exitX=1;exitY=0.5;exitDx=0;exitDy=0;entryX=0.5;entryY=0.5;entryDx=0;entryDy=0;entryPerimeter=0;" parent="8_ItV2GrVfPEZrBjl0NE-1" source="8_ItV2GrVfPEZrBjl0NE-29" target="8_ItV2GrVfPEZrBjl0NE-3" edge="1"><mxGeometry width="50" height="50" relative="1" as="geometry"><mxPoint x="220" y="680" as="sourcePoint"/><mxPoint x="270" y="630" as="targetPoint"/></mxGeometry></mxCell><mxCell id="8_ItV2GrVfPEZrBjl0NE-35" value="" style="endArrow=none;html=1;rounded=0;exitX=1;exitY=0.5;exitDx=0;exitDy=0;entryX=0.5;entryY=0.5;entryDx=0;entryDy=0;entryPerimeter=0;" parent="8_ItV2GrVfPEZrBjl0NE-1" source="8_ItV2GrVfPEZrBjl0NE-30" target="8_ItV2GrVfPEZrBjl0NE-3" edge="1"><mxGeometry width="50" height="50" relative="1" as="geometry"><mxPoint x="480" y="625" as="sourcePoint"/><mxPoint x="835" y="490" as="targetPoint"/></mxGeometry></mxCell><mxCell id="8_ItV2GrVfPEZrBjl0NE-36" value="" style="endArrow=none;html=1;rounded=0;exitX=1;exitY=0.5;exitDx=0;exitDy=0;entryX=0.5;entryY=0.5;entryDx=0;entryDy=0;entryPerimeter=0;" parent="8_ItV2GrVfPEZrBjl0NE-1" source="8_ItV2GrVfPEZrBjl0NE-31" target="8_ItV2GrVfPEZrBjl0NE-3" edge="1"><mxGeometry width="50" height="50" relative="1" as="geometry"><mxPoint x="490" y="635" as="sourcePoint"/><mxPoint x="845" y="500" as="targetPoint"/></mxGeometry></mxCell><mxCell id="8_ItV2GrVfPEZrBjl0NE-37" value="" style="endArrow=none;html=1;rounded=0;exitX=1;exitY=0.5;exitDx=0;exitDy=0;entryX=0.5;entryY=0.5;entryDx=0;entryDy=0;entryPerimeter=0;" parent="8_ItV2GrVfPEZrBjl0NE-1" source="8_ItV2GrVfPEZrBjl0NE-32" target="8_ItV2GrVfPEZrBjl0NE-3" edge="1"><mxGeometry width="50" height="50" relative="1" as="geometry"><mxPoint x="500" y="645" as="sourcePoint"/><mxPoint x="855" y="510" as="targetPoint"/></mxGeometry></mxCell><mxCell id="8_ItV2GrVfPEZrBjl0NE-38" value="" style="endArrow=none;html=1;rounded=0;exitX=1;exitY=0.5;exitDx=0;exitDy=0;entryX=0.5;entryY=0.5;entryDx=0;entryDy=0;entryPerimeter=0;" parent="8_ItV2GrVfPEZrBjl0NE-1" source="8_ItV2GrVfPEZrBjl0NE-33" target="8_ItV2GrVfPEZrBjl0NE-3" edge="1"><mxGeometry width="50" height="50" relative="1" as="geometry"><mxPoint x="510" y="655" as="sourcePoint"/><mxPoint x="865" y="520" as="targetPoint"/></mxGeometry></mxCell><mxCell id="8_ItV2GrVfPEZrBjl0NE-39" value="Include" style="endArrow=block;endSize=16;endFill=0;html=1;rounded=0;exitX=0.5;exitY=1;exitDx=0;exitDy=0;entryX=0.5;entryY=0;entryDx=0;entryDy=0;" parent="8_ItV2GrVfPEZrBjl0NE-1" source="8_ItV2GrVfPEZrBjl0NE-27" target="8_ItV2GrVfPEZrBjl0NE-29" edge="1"><mxGeometry width="160" relative="1" as="geometry"><mxPoint x="620" y="522.5" as="sourcePoint"/><mxPoint x="525" y="520" as="targetPoint"/></mxGeometry></mxCell><mxCell id="8_ItV2GrVfPEZrBjl0NE-40" value="Pay fine" style="ellipse;whiteSpace=wrap;html=1;" parent="8_ItV2GrVfPEZrBjl0NE-1" vertex="1"><mxGeometry x="150" y="960" width="90" height="40" as="geometry"/></mxCell><mxCell id="8_ItV2GrVfPEZrBjl0NE-41" value="Extends" style="endArrow=block;endSize=16;endFill=0;html=1;rounded=0;exitX=1;exitY=0.5;exitDx=0;exitDy=0;entryX=0;entryY=0.5;entryDx=0;entryDy=0;" parent="8_ItV2GrVfPEZrBjl0NE-1" source="8_ItV2GrVfPEZrBjl0NE-40" target="8_ItV2GrVfPEZrBjl0NE-33" edge="1"><mxGeometry width="160" relative="1" as="geometry"><mxPoint x="620" y="522.5" as="sourcePoint"/><mxPoint x="525" y="520" as="targetPoint"/></mxGeometry></mxCell><mxCell id="8_ItV2GrVfPEZrBjl0NE-48" value="" style="endArrow=none;html=1;rounded=0;exitX=0.5;exitY=0.5;exitDx=0;exitDy=0;exitPerimeter=0;entryX=0;entryY=0.5;entryDx=0;entryDy=0;" parent="8_ItV2GrVfPEZrBjl0NE-1" source="8_ItV2GrVfPEZrBjl0NE-2" target="8_ItV2GrVfPEZrBjl0NE-27" edge="1"><mxGeometry width="50" height="50" relative="1" as="geometry"><mxPoint x="140" y="520" as="sourcePoint"/><mxPoint x="190" y="470" as="targetPoint"/></mxGeometry></mxCell><mxCell id="8_ItV2GrVfPEZrBjl0NE-50" value="" style="endArrow=none;html=1;rounded=0;exitX=0.5;exitY=0.5;exitDx=0;exitDy=0;exitPerimeter=0;entryX=0;entryY=0.5;entryDx=0;entryDy=0;" parent="8_ItV2GrVfPEZrBjl0NE-1" source="8_ItV2GrVfPEZrBjl0NE-2" target="8_ItV2GrVfPEZrBjl0NE-29" edge="1"><mxGeometry width="50" height="50" relative="1" as="geometry"><mxPoint x="35" y="490" as="sourcePoint"/><mxPoint x="455" y="520" as="targetPoint"/></mxGeometry></mxCell><mxCell id="8_ItV2GrVfPEZrBjl0NE-51" value="" style="endArrow=none;html=1;rounded=0;entryX=0;entryY=0.5;entryDx=0;entryDy=0;exitX=0.5;exitY=0.5;exitDx=0;exitDy=0;exitPerimeter=0;" parent="8_ItV2GrVfPEZrBjl0NE-1" source="8_ItV2GrVfPEZrBjl0NE-2" target="8_ItV2GrVfPEZrBjl0NE-30" edge="1"><mxGeometry width="50" height="50" relative="1" as="geometry"><mxPoint x="30" y="480" as="sourcePoint"/><mxPoint x="465" y="530" as="targetPoint"/></mxGeometry></mxCell><mxCell id="8_ItV2GrVfPEZrBjl0NE-52" value="" style="endArrow=none;html=1;rounded=0;exitX=0.5;exitY=0.5;exitDx=0;exitDy=0;exitPerimeter=0;entryX=0;entryY=0.5;entryDx=0;entryDy=0;" parent="8_ItV2GrVfPEZrBjl0NE-1" source="8_ItV2GrVfPEZrBjl0NE-2" target="8_ItV2GrVfPEZrBjl0NE-31" edge="1"><mxGeometry width="50" height="50" relative="1" as="geometry"><mxPoint x="55" y="510" as="sourcePoint"/><mxPoint x="475" y="540" as="targetPoint"/></mxGeometry></mxCell><mxCell id="8_ItV2GrVfPEZrBjl0NE-54" value="" style="endArrow=none;html=1;rounded=0;exitX=0.5;exitY=0.5;exitDx=0;exitDy=0;exitPerimeter=0;entryX=0;entryY=0.5;entryDx=0;entryDy=0;" parent="8_ItV2GrVfPEZrBjl0NE-1" source="8_ItV2GrVfPEZrBjl0NE-2" target="8_ItV2GrVfPEZrBjl0NE-32" edge="1"><mxGeometry width="50" height="50" relative="1" as="geometry"><mxPoint x="65" y="520" as="sourcePoint"/><mxPoint x="485" y="550" as="targetPoint"/></mxGeometry></mxCell><mxCell id="8_ItV2GrVfPEZrBjl0NE-55" value="" style="endArrow=none;html=1;rounded=0;exitX=0.5;exitY=0.5;exitDx=0;exitDy=0;exitPerimeter=0;entryX=0;entryY=0.5;entryDx=0;entryDy=0;" parent="8_ItV2GrVfPEZrBjl0NE-1" source="8_ItV2GrVfPEZrBjl0NE-2" target="8_ItV2GrVfPEZrBjl0NE-33" edge="1"><mxGeometry width="50" height="50" relative="1" as="geometry"><mxPoint x="75" y="530" as="sourcePoint"/><mxPoint x="495" y="560" as="targetPoint"/></mxGeometry></mxCell><mxCell id="8_ItV2GrVfPEZrBjl0NE-56" value="System" style="shape=umlActor;verticalLabelPosition=bottom;verticalAlign=top;html=1;" parent="8_ItV2GrVfPEZrBjl0NE-1" vertex="1"><mxGeometry x="780" y="920" width="30" height="60" as="geometry"/></mxCell><mxCell id="8_ItV2GrVfPEZrBjl0NE-57" value="Send overdue notification" style="ellipse;whiteSpace=wrap;html=1;" parent="8_ItV2GrVfPEZrBjl0NE-1" vertex="1"><mxGeometry x="640" y="830" width="110" height="40" as="geometry"/></mxCell><mxCell id="8_ItV2GrVfPEZrBjl0NE-58" value="Send reservation available notification" style="ellipse;whiteSpace=wrap;html=1;" parent="8_ItV2GrVfPEZrBjl0NE-1" vertex="1"><mxGeometry x="640" y="920" width="110" height="60" as="geometry"/></mxCell><mxCell id="8_ItV2GrVfPEZrBjl0NE-59" value="Send reservation cancel notification" style="ellipse;whiteSpace=wrap;html=1;" parent="8_ItV2GrVfPEZrBjl0NE-1" vertex="1"><mxGeometry x="640" y="1030" width="110" height="40" as="geometry"/></mxCell><mxCell id="8_ItV2GrVfPEZrBjl0NE-60" value="" style="endArrow=none;html=1;rounded=0;exitX=1;exitY=0.5;exitDx=0;exitDy=0;entryX=0.5;entryY=0.5;entryDx=0;entryDy=0;entryPerimeter=0;" parent="8_ItV2GrVfPEZrBjl0NE-1" source="8_ItV2GrVfPEZrBjl0NE-57" target="8_ItV2GrVfPEZrBjl0NE-56" edge="1"><mxGeometry width="50" height="50" relative="1" as="geometry"><mxPoint x="750" y="830" as="sourcePoint"/><mxPoint x="800" y="780" as="targetPoint"/></mxGeometry></mxCell><mxCell id="8_ItV2GrVfPEZrBjl0NE-61" value="" style="endArrow=none;html=1;rounded=0;exitX=1;exitY=0.5;exitDx=0;exitDy=0;entryX=0.5;entryY=0.5;entryDx=0;entryDy=0;entryPerimeter=0;" parent="8_ItV2GrVfPEZrBjl0NE-1" source="8_ItV2GrVfPEZrBjl0NE-58" target="8_ItV2GrVfPEZrBjl0NE-56" edge="1"><mxGeometry width="50" height="50" relative="1" as="geometry"><mxPoint x="770" y="1040" as="sourcePoint"/><mxPoint x="820" y="990" as="targetPoint"/></mxGeometry></mxCell><mxCell id="8_ItV2GrVfPEZrBjl0NE-63" value="" style="endArrow=none;html=1;rounded=0;exitX=1;exitY=0.5;exitDx=0;exitDy=0;entryX=0.5;entryY=0.5;entryDx=0;entryDy=0;entryPerimeter=0;" parent="8_ItV2GrVfPEZrBjl0NE-1" source="8_ItV2GrVfPEZrBjl0NE-59" target="8_ItV2GrVfPEZrBjl0NE-56" edge="1"><mxGeometry width="50" height="50" relative="1" as="geometry"><mxPoint x="800" y="1070" as="sourcePoint"/><mxPoint x="850" y="1020" as="targetPoint"/></mxGeometry></mxCell><mxCell id="8_ItV2GrVfPEZrBjl0NE-64" value="Update catalog" style="ellipse;whiteSpace=wrap;html=1;" parent="8_ItV2GrVfPEZrBjl0NE-1" vertex="1"><mxGeometry x="260" y="105" width="90" height="40" as="geometry"/></mxCell><mxCell id="8_ItV2GrVfPEZrBjl0NE-65" value="Include" style="endArrow=block;endSize=16;endFill=0;html=1;rounded=0;exitX=0;exitY=0.5;exitDx=0;exitDy=0;" parent="8_ItV2GrVfPEZrBjl0NE-1" source="8_ItV2GrVfPEZrBjl0NE-12" target="8_ItV2GrVfPEZrBjl0NE-64" edge="1"><mxGeometry width="160" relative="1" as="geometry"><mxPoint x="750" y="75" as="sourcePoint"/><mxPoint x="550" y="75" as="targetPoint"/></mxGeometry></mxCell><mxCell id="8_ItV2GrVfPEZrBjl0NE-66" value="Include" style="endArrow=block;endSize=16;endFill=0;html=1;rounded=0;exitX=0;exitY=0.5;exitDx=0;exitDy=0;entryX=1;entryY=0.5;entryDx=0;entryDy=0;" parent="8_ItV2GrVfPEZrBjl0NE-1" source="8_ItV2GrVfPEZrBjl0NE-13" target="8_ItV2GrVfPEZrBjl0NE-64" edge="1"><mxGeometry width="160" relative="1" as="geometry"><mxPoint x="760" y="85" as="sourcePoint"/><mxPoint x="560" y="85" as="targetPoint"/></mxGeometry></mxCell><mxCell id="8_ItV2GrVfPEZrBjl0NE-67" value="Include" style="endArrow=block;endSize=16;endFill=0;html=1;rounded=0;exitX=0;exitY=0.5;exitDx=0;exitDy=0;entryX=1;entryY=1;entryDx=0;entryDy=0;" parent="8_ItV2GrVfPEZrBjl0NE-1" source="8_ItV2GrVfPEZrBjl0NE-14" target="8_ItV2GrVfPEZrBjl0NE-64" edge="1"><mxGeometry width="160" relative="1" as="geometry"><mxPoint x="770" y="95" as="sourcePoint"/><mxPoint x="570" y="95" as="targetPoint"/></mxGeometry></mxCell><mxCell id="8_ItV2GrVfPEZrBjl0NE-68" value="Login/Logout" style="ellipse;whiteSpace=wrap;html=1;" parent="8_ItV2GrVfPEZrBjl0NE-1" vertex="1"><mxGeometry x="363.5" y="320" width="95" height="40" as="geometry"/></mxCell><mxCell id="8_ItV2GrVfPEZrBjl0NE-69" value="Cancel membership" style="ellipse;whiteSpace=wrap;html=1;" parent="8_ItV2GrVfPEZrBjl0NE-1" vertex="1"><mxGeometry x="369.5" y="400" width="83" height="40" as="geometry"/></mxCell><mxCell id="8_ItV2GrVfPEZrBjl0NE-70" value="Register/Update account" style="ellipse;whiteSpace=wrap;html=1;" parent="8_ItV2GrVfPEZrBjl0NE-1" vertex="1"><mxGeometry x="361.5" y="480" width="101" height="50" as="geometry"/></mxCell><mxCell id="8_ItV2GrVfPEZrBjl0NE-71" value="" style="endArrow=none;html=1;rounded=0;exitX=0.5;exitY=0.5;exitDx=0;exitDy=0;exitPerimeter=0;entryX=0;entryY=0.5;entryDx=0;entryDy=0;" parent="8_ItV2GrVfPEZrBjl0NE-1" source="8_ItV2GrVfPEZrBjl0NE-2" target="8_ItV2GrVfPEZrBjl0NE-68" edge="1"><mxGeometry width="50" height="50" relative="1" as="geometry"><mxPoint x="190" y="410" as="sourcePoint"/><mxPoint x="240" y="360" as="targetPoint"/></mxGeometry></mxCell><mxCell id="8_ItV2GrVfPEZrBjl0NE-72" value="" style="endArrow=none;html=1;rounded=0;exitX=0.5;exitY=0.5;exitDx=0;exitDy=0;exitPerimeter=0;entryX=0;entryY=0.5;entryDx=0;entryDy=0;" parent="8_ItV2GrVfPEZrBjl0NE-1" source="8_ItV2GrVfPEZrBjl0NE-2" target="8_ItV2GrVfPEZrBjl0NE-69" edge="1"><mxGeometry width="50" height="50" relative="1" as="geometry"><mxPoint x="130" y="500" as="sourcePoint"/><mxPoint x="180" y="450" as="targetPoint"/></mxGeometry></mxCell><mxCell id="8_ItV2GrVfPEZrBjl0NE-73" value="" style="endArrow=none;html=1;rounded=0;exitX=0.5;exitY=0.5;exitDx=0;exitDy=0;exitPerimeter=0;entryX=0;entryY=0.5;entryDx=0;entryDy=0;" parent="8_ItV2GrVfPEZrBjl0NE-1" source="8_ItV2GrVfPEZrBjl0NE-2" target="8_ItV2GrVfPEZrBjl0NE-70" edge="1"><mxGeometry width="50" height="50" relative="1" as="geometry"><mxPoint x="270" y="510" as="sourcePoint"/><mxPoint x="320" y="460" as="targetPoint"/></mxGeometry></mxCell><mxCell id="8_ItV2GrVfPEZrBjl0NE-74" value="" style="endArrow=none;html=1;rounded=0;exitX=1;exitY=0.5;exitDx=0;exitDy=0;entryX=0.5;entryY=0.5;entryDx=0;entryDy=0;entryPerimeter=0;" parent="8_ItV2GrVfPEZrBjl0NE-1" source="8_ItV2GrVfPEZrBjl0NE-69" target="8_ItV2GrVfPEZrBjl0NE-3" edge="1"><mxGeometry width="50" height="50" relative="1" as="geometry"><mxPoint x="35" y="490" as="sourcePoint"/><mxPoint x="379.5" y="430" as="targetPoint"/></mxGeometry></mxCell><mxCell id="8_ItV2GrVfPEZrBjl0NE-75" value="" style="endArrow=none;html=1;rounded=0;exitX=1;exitY=0.5;exitDx=0;exitDy=0;entryX=0.5;entryY=0.5;entryDx=0;entryDy=0;entryPerimeter=0;" parent="8_ItV2GrVfPEZrBjl0NE-1" source="8_ItV2GrVfPEZrBjl0NE-70" target="8_ItV2GrVfPEZrBjl0NE-3" edge="1"><mxGeometry width="50" height="50" relative="1" as="geometry"><mxPoint x="45" y="500" as="sourcePoint"/><mxPoint x="389.5" y="440" as="targetPoint"/></mxGeometry></mxCell><mxCell id="8_ItV2GrVfPEZrBjl0NE-76" value="" style="endArrow=none;html=1;rounded=0;exitX=1;exitY=0.5;exitDx=0;exitDy=0;entryX=0.5;entryY=0.5;entryDx=0;entryDy=0;entryPerimeter=0;" parent="8_ItV2GrVfPEZrBjl0NE-1" source="8_ItV2GrVfPEZrBjl0NE-68" target="8_ItV2GrVfPEZrBjl0NE-3" edge="1"><mxGeometry width="50" height="50" relative="1" as="geometry"><mxPoint x="55" y="510" as="sourcePoint"/><mxPoint x="399.5" y="450" as="targetPoint"/></mxGeometry></mxCell><mxCell id="8_ItV2GrVfPEZrBjl0NE-77" value="Search catalog" style="ellipse;whiteSpace=wrap;html=1;" parent="8_ItV2GrVfPEZrBjl0NE-1" vertex="1"><mxGeometry x="292.5" y="240" width="90" height="40" as="geometry"/></mxCell><mxCell id="8_ItV2GrVfPEZrBjl0NE-78" value="" style="endArrow=none;html=1;rounded=0;entryX=1;entryY=1;entryDx=0;entryDy=0;exitX=0.5;exitY=0;exitDx=0;exitDy=0;exitPerimeter=0;" parent="8_ItV2GrVfPEZrBjl0NE-1" source="8_ItV2GrVfPEZrBjl0NE-3" target="8_ItV2GrVfPEZrBjl0NE-77" edge="1"><mxGeometry width="50" height="50" relative="1" as="geometry"><mxPoint x="825" y="450" as="sourcePoint"/><mxPoint x="390" y="280" as="targetPoint"/></mxGeometry></mxCell><mxCell id="8_ItV2GrVfPEZrBjl0NE-79" value="" style="endArrow=none;html=1;rounded=0;entryX=0.5;entryY=1;entryDx=0;entryDy=0;exitX=0.5;exitY=0.5;exitDx=0;exitDy=0;exitPerimeter=0;" parent="8_ItV2GrVfPEZrBjl0NE-1" source="8_ItV2GrVfPEZrBjl0NE-2" target="8_ItV2GrVfPEZrBjl0NE-77" edge="1"><mxGeometry width="50" height="50" relative="1" as="geometry"><mxPoint x="200" y="390" as="sourcePoint"/><mxPoint x="250" y="340" as="targetPoint"/></mxGeometry></mxCell><mxCell id="8_ItV2GrVfPEZrBjl0NE-80" value="search by publication date" style="ellipse;whiteSpace=wrap;html=1;" parent="8_ItV2GrVfPEZrBjl0NE-1" vertex="1"><mxGeometry x="20" y="315" width="100" height="50" as="geometry"/></mxCell><mxCell id="8_ItV2GrVfPEZrBjl0NE-81" value="search by subject name" style="ellipse;whiteSpace=wrap;html=1;" parent="8_ItV2GrVfPEZrBjl0NE-1" vertex="1"><mxGeometry x="20" y="220" width="100" height="50" as="geometry"/></mxCell><mxCell id="8_ItV2GrVfPEZrBjl0NE-82" value="Search by auther name" style="ellipse;whiteSpace=wrap;html=1;" parent="8_ItV2GrVfPEZrBjl0NE-1" vertex="1"><mxGeometry x="20" y="145" width="100" height="50" as="geometry"/></mxCell><mxCell id="8_ItV2GrVfPEZrBjl0NE-83" value="Search by book title" style="ellipse;whiteSpace=wrap;html=1;" parent="8_ItV2GrVfPEZrBjl0NE-1" vertex="1"><mxGeometry x="110" y="80" width="100" height="50" as="geometry"/></mxCell><mxCell id="8_ItV2GrVfPEZrBjl0NE-84" value="Extends" style="endArrow=block;endSize=16;endFill=0;html=1;rounded=0;exitX=0.5;exitY=1;exitDx=0;exitDy=0;entryX=0.5;entryY=0;entryDx=0;entryDy=0;" parent="8_ItV2GrVfPEZrBjl0NE-1" source="8_ItV2GrVfPEZrBjl0NE-83" target="8_ItV2GrVfPEZrBjl0NE-77" edge="1"><mxGeometry width="160" relative="1" as="geometry"><mxPoint x="560" y="270" as="sourcePoint"/><mxPoint x="650" y="270" as="targetPoint"/></mxGeometry></mxCell><mxCell id="8_ItV2GrVfPEZrBjl0NE-85" value="Extends" style="endArrow=block;endSize=16;endFill=0;html=1;rounded=0;exitX=1;exitY=0.5;exitDx=0;exitDy=0;entryX=0;entryY=0;entryDx=0;entryDy=0;" parent="8_ItV2GrVfPEZrBjl0NE-1" source="8_ItV2GrVfPEZrBjl0NE-82" target="8_ItV2GrVfPEZrBjl0NE-77" edge="1"><mxGeometry width="160" relative="1" as="geometry"><mxPoint x="570" y="280" as="sourcePoint"/><mxPoint x="660" y="280" as="targetPoint"/></mxGeometry></mxCell><mxCell id="8_ItV2GrVfPEZrBjl0NE-86" value="Extends" style="endArrow=block;endSize=16;endFill=0;html=1;rounded=0;exitX=1;exitY=0.5;exitDx=0;exitDy=0;entryX=0;entryY=1;entryDx=0;entryDy=0;" parent="8_ItV2GrVfPEZrBjl0NE-1" source="8_ItV2GrVfPEZrBjl0NE-80" target="8_ItV2GrVfPEZrBjl0NE-77" edge="1"><mxGeometry width="160" relative="1" as="geometry"><mxPoint x="580" y="290" as="sourcePoint"/><mxPoint x="670" y="290" as="targetPoint"/></mxGeometry></mxCell><mxCell id="8_ItV2GrVfPEZrBjl0NE-87" value="Extends" style="endArrow=block;endSize=16;endFill=0;html=1;rounded=0;exitX=1;exitY=0.5;exitDx=0;exitDy=0;entryX=0;entryY=0.5;entryDx=0;entryDy=0;" parent="8_ItV2GrVfPEZrBjl0NE-1" source="8_ItV2GrVfPEZrBjl0NE-81" target="8_ItV2GrVfPEZrBjl0NE-77" edge="1"><mxGeometry width="160" relative="1" as="geometry"><mxPoint x="590" y="300" as="sourcePoint"/><mxPoint x="220" y="260" as="targetPoint"/></mxGeometry></mxCell><mxCell id="-dCKBQuhEgG2ewp_d6i3-0" value="Library Mangement System" style="text;align=center;fontStyle=1;verticalAlign=middle;spacingLeft=3;spacingRight=3;strokeColor=none;rotatable=0;points=[[0,0.5],[1,0.5]];portConstraint=eastwest;" parent="8_ItV2GrVfPEZrBjl0NE-1" vertex="1"><mxGeometry x="10" y="20" width="170" height="26" as="geometry"/></mxCell></root></mxGraphModel></diagram><diagram id="C5RBs43oDa-KdzZeNtuy" name="ClassDiagram"><mxGraphModel dx="884" dy="753" grid="1" gridSize="10" guides="1" tooltips="1" connect="1" arrows="1" fold="1" page="1" pageScale="1" pageWidth="1100" pageHeight="1700" math="0" shadow="0"><root><mxCell id="WIyWlLk6GJQsqaUBKTNV-0"/><mxCell id="WIyWlLk6GJQsqaUBKTNV-1" parent="WIyWlLk6GJQsqaUBKTNV-0"/><mxCell id="azxk0Qjh1z-2OdwwoFdQ-26" value="&lt;p style=&quot;margin: 0px ; margin-top: 4px ; text-align: center&quot;&gt;&amp;lt;&amp;lt;enumeration&amp;gt;&amp;gt;&lt;/p&gt;&lt;p style=&quot;margin: 0px ; margin-top: 4px ; text-align: center&quot;&gt;&lt;b&gt;&lt;u&gt;BookFormat&lt;/u&gt;&lt;/b&gt;&lt;/p&gt;&lt;hr size=&quot;1&quot;&gt;&lt;div style=&quot;height: 2px&quot;&gt;Hardcover&lt;/div&gt;&lt;div style=&quot;height: 2px&quot;&gt;&lt;br&gt;Paperbook&lt;br&gt;Audiobook&lt;br&gt;eBook&lt;br&gt;Newspaper&lt;br&gt;Magazine&lt;br&gt;Journal&lt;br&gt;&lt;br&gt;&lt;/div&gt;&lt;div style=&quot;height: 2px&quot;&gt;&lt;br&gt;&lt;/div&gt;" style="verticalAlign=top;align=left;overflow=fill;fontSize=12;fontFamily=Helvetica;html=1;dashed=1;dashPattern=1 4;labelBackgroundColor=none;strokeColor=#d79b00;strokeWidth=0;fillColor=#ffe6cc;" parent="WIyWlLk6GJQsqaUBKTNV-1" vertex="1"><mxGeometry x="70" y="17" width="140" height="153" as="geometry"/></mxCell><mxCell id="azxk0Qjh1z-2OdwwoFdQ-27" value="&lt;p style=&quot;margin: 0px ; margin-top: 4px ; text-align: center&quot;&gt;&amp;lt;&amp;lt;enumeration&amp;gt;&amp;gt;&lt;/p&gt;&lt;p style=&quot;margin: 0px ; margin-top: 4px ; text-align: center&quot;&gt;&lt;b&gt;&lt;u&gt;BookStatus&lt;/u&gt;&lt;/b&gt;&lt;/p&gt;&lt;hr size=&quot;1&quot;&gt;&lt;div style=&quot;height: 2px&quot;&gt;Available&lt;br&gt;Reserved&lt;br&gt;Loaned&lt;br&gt;Lost&lt;/div&gt;&lt;div style=&quot;height: 2px&quot;&gt;&lt;br&gt;&lt;br&gt;&lt;br&gt;&lt;br&gt;&lt;br&gt;&lt;/div&gt;&lt;div style=&quot;height: 2px&quot;&gt;&lt;br&gt;&lt;/div&gt;" style="verticalAlign=top;align=left;overflow=fill;fontSize=12;fontFamily=Helvetica;html=1;dashed=1;dashPattern=1 4;labelBackgroundColor=none;strokeColor=#d79b00;strokeWidth=0;fillColor=#ffe6cc;" parent="WIyWlLk6GJQsqaUBKTNV-1" vertex="1"><mxGeometry x="240" y="17" width="140" height="153" as="geometry"/></mxCell><mxCell id="azxk0Qjh1z-2OdwwoFdQ-28" value="&lt;p style=&quot;margin: 0px ; margin-top: 4px ; text-align: center&quot;&gt;&amp;lt;&amp;lt;enumeration&amp;gt;&amp;gt;&lt;/p&gt;&lt;p style=&quot;margin: 0px ; margin-top: 4px ; text-align: center&quot;&gt;&lt;b&gt;&lt;u&gt;ReservationStatus&lt;/u&gt;&lt;/b&gt;&lt;/p&gt;&lt;hr size=&quot;1&quot;&gt;&lt;div style=&quot;height: 2px&quot;&gt;Waiting&lt;br&gt;Pending&lt;br&gt;Completed&lt;br&gt;Canceled&lt;br&gt;None&lt;/div&gt;&lt;div style=&quot;height: 2px&quot;&gt;&lt;br&gt;&lt;/div&gt;&lt;div style=&quot;height: 2px&quot;&gt;&lt;br&gt;&lt;/div&gt;" style="verticalAlign=top;align=left;overflow=fill;fontSize=12;fontFamily=Helvetica;html=1;dashed=1;dashPattern=1 4;labelBackgroundColor=none;strokeColor=#d79b00;strokeWidth=0;fillColor=#ffe6cc;" parent="WIyWlLk6GJQsqaUBKTNV-1" vertex="1"><mxGeometry x="410" y="17" width="140" height="153" as="geometry"/></mxCell><mxCell id="azxk0Qjh1z-2OdwwoFdQ-29" value="&lt;p style=&quot;margin: 0px ; margin-top: 4px ; text-align: center&quot;&gt;&amp;lt;&amp;lt;enumeration&amp;gt;&amp;gt;&lt;/p&gt;&lt;p style=&quot;margin: 0px ; margin-top: 4px ; text-align: center&quot;&gt;&lt;b&gt;&lt;u&gt;AccountStatus&lt;/u&gt;&lt;/b&gt;&lt;/p&gt;&lt;hr size=&quot;1&quot;&gt;&lt;div style=&quot;height: 2px&quot;&gt;Active&lt;br&gt;Closed&lt;br&gt;Suspended&lt;br&gt;Blacklisted&lt;br&gt;Canceled&lt;br&gt;None&lt;/div&gt;&lt;div style=&quot;height: 2px&quot;&gt;&lt;br&gt;&lt;/div&gt;&lt;div style=&quot;height: 2px&quot;&gt;&lt;br&gt;&lt;/div&gt;" style="verticalAlign=top;align=left;overflow=fill;fontSize=12;fontFamily=Helvetica;html=1;dashed=1;dashPattern=1 4;labelBackgroundColor=none;strokeColor=#d79b00;strokeWidth=0;fillColor=#ffe6cc;" parent="WIyWlLk6GJQsqaUBKTNV-1" vertex="1"><mxGeometry x="570" y="17" width="140" height="153" as="geometry"/></mxCell><mxCell id="azxk0Qjh1z-2OdwwoFdQ-30" value="&lt;p style=&quot;margin: 0px ; margin-top: 4px ; text-align: center&quot;&gt;&amp;lt;&amp;lt;dataType&amp;gt;&amp;gt;&lt;/p&gt;&lt;p style=&quot;margin: 0px ; margin-top: 4px ; text-align: center&quot;&gt;&lt;b&gt;&lt;u&gt;Address&lt;/u&gt;&lt;/b&gt;&lt;/p&gt;&lt;hr size=&quot;1&quot;&gt;&lt;div style=&quot;height: 2px&quot;&gt;streetAddress: string&lt;br&gt;city: string&lt;br&gt;state: string&lt;br&gt;zip: string&lt;br&gt;country: string&lt;/div&gt;&lt;div style=&quot;height: 2px&quot;&gt;&lt;br&gt;&lt;/div&gt;&lt;div style=&quot;height: 2px&quot;&gt;&lt;br&gt;&lt;/div&gt;" style="verticalAlign=top;align=left;overflow=fill;fontSize=12;fontFamily=Helvetica;html=1;dashed=1;dashPattern=1 4;labelBackgroundColor=none;strokeColor=#9673a6;strokeWidth=0;fillColor=#e1d5e7;" parent="WIyWlLk6GJQsqaUBKTNV-1" vertex="1"><mxGeometry x="740" y="17" width="140" height="153" as="geometry"/></mxCell><mxCell id="azxk0Qjh1z-2OdwwoFdQ-31" value="&lt;p style=&quot;margin: 0px ; margin-top: 4px ; text-align: center&quot;&gt;&amp;lt;&amp;lt;dataType&amp;gt;&amp;gt;&lt;/p&gt;&lt;p style=&quot;margin: 0px ; margin-top: 4px ; text-align: center&quot;&gt;&lt;b&gt;&lt;u&gt;Person&lt;/u&gt;&lt;/b&gt;&lt;/p&gt;&lt;hr size=&quot;1&quot;&gt;&lt;div style=&quot;height: 2px&quot;&gt;name: string&lt;br&gt;address: Address&lt;br&gt;email: string&lt;br&gt;phone: string&lt;/div&gt;&lt;div style=&quot;height: 2px&quot;&gt;&lt;br&gt;&lt;/div&gt;&lt;div style=&quot;height: 2px&quot;&gt;&lt;br&gt;&lt;/div&gt;&lt;div style=&quot;height: 2px&quot;&gt;&lt;br&gt;&lt;/div&gt;" style="verticalAlign=top;align=left;overflow=fill;fontSize=12;fontFamily=Helvetica;html=1;dashed=1;dashPattern=1 4;labelBackgroundColor=none;strokeColor=#9673a6;strokeWidth=0;fillColor=#e1d5e7;" parent="WIyWlLk6GJQsqaUBKTNV-1" vertex="1"><mxGeometry x="900" y="17" width="140" height="153" as="geometry"/></mxCell><mxCell id="azxk0Qjh1z-2OdwwoFdQ-33" value="Author" style="swimlane;fontStyle=1;align=center;verticalAlign=top;childLayout=stackLayout;horizontal=1;startSize=26;horizontalStack=0;resizeParent=1;resizeParentMax=0;resizeLast=0;collapsible=1;marginBottom=0;labelBackgroundColor=none;strokeColor=#82b366;strokeWidth=2;fillColor=#d5e8d4;" parent="WIyWlLk6GJQsqaUBKTNV-1" vertex="1"><mxGeometry x="40" y="210" width="160" height="86" as="geometry"/></mxCell><mxCell id="azxk0Qjh1z-2OdwwoFdQ-34" value="+ field: type" style="text;strokeColor=none;fillColor=none;align=left;verticalAlign=top;spacingLeft=4;spacingRight=4;overflow=hidden;rotatable=0;points=[[0,0.5],[1,0.5]];portConstraint=eastwest;dashed=1;dashPattern=1 4;labelBackgroundColor=none;" parent="azxk0Qjh1z-2OdwwoFdQ-33" vertex="1"><mxGeometry y="26" width="160" height="26" as="geometry"/></mxCell><mxCell id="azxk0Qjh1z-2OdwwoFdQ-35" value="" style="line;strokeWidth=1;fillColor=none;align=left;verticalAlign=middle;spacingTop=-1;spacingLeft=3;spacingRight=3;rotatable=0;labelPosition=right;points=[];portConstraint=eastwest;labelBackgroundColor=none;" parent="azxk0Qjh1z-2OdwwoFdQ-33" vertex="1"><mxGeometry y="52" width="160" height="8" as="geometry"/></mxCell><mxCell id="azxk0Qjh1z-2OdwwoFdQ-36" value="+ method(type): type" style="text;strokeColor=none;fillColor=none;align=left;verticalAlign=top;spacingLeft=4;spacingRight=4;overflow=hidden;rotatable=0;points=[[0,0.5],[1,0.5]];portConstraint=eastwest;dashed=1;dashPattern=1 4;labelBackgroundColor=none;" parent="azxk0Qjh1z-2OdwwoFdQ-33" vertex="1"><mxGeometry y="60" width="160" height="26" as="geometry"/></mxCell><mxCell id="azxk0Qjh1z-2OdwwoFdQ-37" value="Library" style="swimlane;fontStyle=1;align=center;verticalAlign=top;childLayout=stackLayout;horizontal=1;startSize=26;horizontalStack=0;resizeParent=1;resizeParentMax=0;resizeLast=0;collapsible=1;marginBottom=0;labelBackgroundColor=none;strokeColor=#82b366;strokeWidth=2;fillColor=#d5e8d4;" parent="WIyWlLk6GJQsqaUBKTNV-1" vertex="1"><mxGeometry x="300" y="210" width="160" height="86" as="geometry"/></mxCell><mxCell id="azxk0Qjh1z-2OdwwoFdQ-38" value="+ field: type" style="text;strokeColor=none;fillColor=none;align=left;verticalAlign=top;spacingLeft=4;spacingRight=4;overflow=hidden;rotatable=0;points=[[0,0.5],[1,0.5]];portConstraint=eastwest;dashed=1;dashPattern=1 4;labelBackgroundColor=none;" parent="azxk0Qjh1z-2OdwwoFdQ-37" vertex="1"><mxGeometry y="26" width="160" height="26" as="geometry"/></mxCell><mxCell id="azxk0Qjh1z-2OdwwoFdQ-39" value="" style="line;strokeWidth=1;fillColor=none;align=left;verticalAlign=middle;spacingTop=-1;spacingLeft=3;spacingRight=3;rotatable=0;labelPosition=right;points=[];portConstraint=eastwest;labelBackgroundColor=none;" parent="azxk0Qjh1z-2OdwwoFdQ-37" vertex="1"><mxGeometry y="52" width="160" height="8" as="geometry"/></mxCell><mxCell id="azxk0Qjh1z-2OdwwoFdQ-40" value="+ method(type): type" style="text;strokeColor=none;fillColor=none;align=left;verticalAlign=top;spacingLeft=4;spacingRight=4;overflow=hidden;rotatable=0;points=[[0,0.5],[1,0.5]];portConstraint=eastwest;dashed=1;dashPattern=1 4;labelBackgroundColor=none;" parent="azxk0Qjh1z-2OdwwoFdQ-37" vertex="1"><mxGeometry y="60" width="160" height="26" as="geometry"/></mxCell><mxCell id="azxk0Qjh1z-2OdwwoFdQ-41" value="Librarian" style="swimlane;fontStyle=1;align=center;verticalAlign=top;childLayout=stackLayout;horizontal=1;startSize=26;horizontalStack=0;resizeParent=1;resizeParentMax=0;resizeLast=0;collapsible=1;marginBottom=0;labelBackgroundColor=none;strokeColor=#82b366;strokeWidth=2;fillColor=#d5e8d4;" parent="WIyWlLk6GJQsqaUBKTNV-1" vertex="1"><mxGeometry x="570" y="210" width="160" height="86" as="geometry"/></mxCell><mxCell id="azxk0Qjh1z-2OdwwoFdQ-42" value="+ field: type" style="text;strokeColor=none;fillColor=none;align=left;verticalAlign=top;spacingLeft=4;spacingRight=4;overflow=hidden;rotatable=0;points=[[0,0.5],[1,0.5]];portConstraint=eastwest;dashed=1;dashPattern=1 4;labelBackgroundColor=none;" parent="azxk0Qjh1z-2OdwwoFdQ-41" vertex="1"><mxGeometry y="26" width="160" height="26" as="geometry"/></mxCell><mxCell id="azxk0Qjh1z-2OdwwoFdQ-43" value="" style="line;strokeWidth=1;fillColor=none;align=left;verticalAlign=middle;spacingTop=-1;spacingLeft=3;spacingRight=3;rotatable=0;labelPosition=right;points=[];portConstraint=eastwest;labelBackgroundColor=none;" parent="azxk0Qjh1z-2OdwwoFdQ-41" vertex="1"><mxGeometry y="52" width="160" height="8" as="geometry"/></mxCell><mxCell id="azxk0Qjh1z-2OdwwoFdQ-44" value="+ method(type): type" style="text;strokeColor=none;fillColor=none;align=left;verticalAlign=top;spacingLeft=4;spacingRight=4;overflow=hidden;rotatable=0;points=[[0,0.5],[1,0.5]];portConstraint=eastwest;dashed=1;dashPattern=1 4;labelBackgroundColor=none;" parent="azxk0Qjh1z-2OdwwoFdQ-41" vertex="1"><mxGeometry y="60" width="160" height="26" as="geometry"/></mxCell><mxCell id="azxk0Qjh1z-2OdwwoFdQ-45" value="Member" style="swimlane;fontStyle=1;align=center;verticalAlign=top;childLayout=stackLayout;horizontal=1;startSize=26;horizontalStack=0;resizeParent=1;resizeParentMax=0;resizeLast=0;collapsible=1;marginBottom=0;labelBackgroundColor=none;strokeColor=#82b366;strokeWidth=2;fillColor=#d5e8d4;" parent="WIyWlLk6GJQsqaUBKTNV-1" vertex="1"><mxGeometry x="820" y="210" width="160" height="86" as="geometry"/></mxCell><mxCell id="azxk0Qjh1z-2OdwwoFdQ-46" value="+ field: type" style="text;strokeColor=none;fillColor=none;align=left;verticalAlign=top;spacingLeft=4;spacingRight=4;overflow=hidden;rotatable=0;points=[[0,0.5],[1,0.5]];portConstraint=eastwest;dashed=1;dashPattern=1 4;labelBackgroundColor=none;" parent="azxk0Qjh1z-2OdwwoFdQ-45" vertex="1"><mxGeometry y="26" width="160" height="26" as="geometry"/></mxCell><mxCell id="azxk0Qjh1z-2OdwwoFdQ-47" value="" style="line;strokeWidth=1;fillColor=none;align=left;verticalAlign=middle;spacingTop=-1;spacingLeft=3;spacingRight=3;rotatable=0;labelPosition=right;points=[];portConstraint=eastwest;labelBackgroundColor=none;" parent="azxk0Qjh1z-2OdwwoFdQ-45" vertex="1"><mxGeometry y="52" width="160" height="8" as="geometry"/></mxCell><mxCell id="azxk0Qjh1z-2OdwwoFdQ-48" value="+ method(type): type" style="text;strokeColor=none;fillColor=none;align=left;verticalAlign=top;spacingLeft=4;spacingRight=4;overflow=hidden;rotatable=0;points=[[0,0.5],[1,0.5]];portConstraint=eastwest;dashed=1;dashPattern=1 4;labelBackgroundColor=none;" parent="azxk0Qjh1z-2OdwwoFdQ-45" vertex="1"><mxGeometry y="60" width="160" height="26" as="geometry"/></mxCell><mxCell id="azxk0Qjh1z-2OdwwoFdQ-49" value="Book" style="swimlane;fontStyle=1;align=center;verticalAlign=top;childLayout=stackLayout;horizontal=1;startSize=26;horizontalStack=0;resizeParent=1;resizeParentMax=0;resizeLast=0;collapsible=1;marginBottom=0;labelBackgroundColor=none;strokeColor=#82b366;strokeWidth=2;fillColor=#d5e8d4;" parent="WIyWlLk6GJQsqaUBKTNV-1" vertex="1"><mxGeometry x="40" y="380" width="160" height="86" as="geometry"/></mxCell><mxCell id="azxk0Qjh1z-2OdwwoFdQ-50" value="+ field: type" style="text;strokeColor=none;fillColor=none;align=left;verticalAlign=top;spacingLeft=4;spacingRight=4;overflow=hidden;rotatable=0;points=[[0,0.5],[1,0.5]];portConstraint=eastwest;dashed=1;dashPattern=1 4;labelBackgroundColor=none;" parent="azxk0Qjh1z-2OdwwoFdQ-49" vertex="1"><mxGeometry y="26" width="160" height="26" as="geometry"/></mxCell><mxCell id="azxk0Qjh1z-2OdwwoFdQ-51" value="" style="line;strokeWidth=1;fillColor=none;align=left;verticalAlign=middle;spacingTop=-1;spacingLeft=3;spacingRight=3;rotatable=0;labelPosition=right;points=[];portConstraint=eastwest;labelBackgroundColor=none;" parent="azxk0Qjh1z-2OdwwoFdQ-49" vertex="1"><mxGeometry y="52" width="160" height="8" as="geometry"/></mxCell><mxCell id="azxk0Qjh1z-2OdwwoFdQ-52" value="+ method(type): type" style="text;strokeColor=none;fillColor=none;align=left;verticalAlign=top;spacingLeft=4;spacingRight=4;overflow=hidden;rotatable=0;points=[[0,0.5],[1,0.5]];portConstraint=eastwest;dashed=1;dashPattern=1 4;labelBackgroundColor=none;" parent="azxk0Qjh1z-2OdwwoFdQ-49" vertex="1"><mxGeometry y="60" width="160" height="26" as="geometry"/></mxCell><mxCell id="azxk0Qjh1z-2OdwwoFdQ-53" value="BookItem" style="swimlane;fontStyle=1;align=center;verticalAlign=top;childLayout=stackLayout;horizontal=1;startSize=26;horizontalStack=0;resizeParent=1;resizeParentMax=0;resizeLast=0;collapsible=1;marginBottom=0;labelBackgroundColor=none;strokeColor=#82b366;strokeWidth=2;fillColor=#d5e8d4;" parent="WIyWlLk6GJQsqaUBKTNV-1" vertex="1"><mxGeometry x="310" y="380" width="160" height="86" as="geometry"/></mxCell><mxCell id="azxk0Qjh1z-2OdwwoFdQ-54" value="+ field: type" style="text;strokeColor=none;fillColor=none;align=left;verticalAlign=top;spacingLeft=4;spacingRight=4;overflow=hidden;rotatable=0;points=[[0,0.5],[1,0.5]];portConstraint=eastwest;dashed=1;dashPattern=1 4;labelBackgroundColor=none;" parent="azxk0Qjh1z-2OdwwoFdQ-53" vertex="1"><mxGeometry y="26" width="160" height="26" as="geometry"/></mxCell><mxCell id="azxk0Qjh1z-2OdwwoFdQ-55" value="" style="line;strokeWidth=1;fillColor=none;align=left;verticalAlign=middle;spacingTop=-1;spacingLeft=3;spacingRight=3;rotatable=0;labelPosition=right;points=[];portConstraint=eastwest;labelBackgroundColor=none;" parent="azxk0Qjh1z-2OdwwoFdQ-53" vertex="1"><mxGeometry y="52" width="160" height="8" as="geometry"/></mxCell><mxCell id="azxk0Qjh1z-2OdwwoFdQ-56" value="+ method(type): type" style="text;strokeColor=none;fillColor=none;align=left;verticalAlign=top;spacingLeft=4;spacingRight=4;overflow=hidden;rotatable=0;points=[[0,0.5],[1,0.5]];portConstraint=eastwest;dashed=1;dashPattern=1 4;labelBackgroundColor=none;" parent="azxk0Qjh1z-2OdwwoFdQ-53" vertex="1"><mxGeometry y="60" width="160" height="26" as="geometry"/></mxCell><mxCell id="azxk0Qjh1z-2OdwwoFdQ-57" value="Account" style="swimlane;fontStyle=1;align=center;verticalAlign=top;childLayout=stackLayout;horizontal=1;startSize=26;horizontalStack=0;resizeParent=1;resizeParentMax=0;resizeLast=0;collapsible=1;marginBottom=0;labelBackgroundColor=none;strokeColor=#82b366;strokeWidth=2;fillColor=#d5e8d4;" parent="WIyWlLk6GJQsqaUBKTNV-1" vertex="1"><mxGeometry x="570" y="380" width="160" height="86" as="geometry"/></mxCell><mxCell id="azxk0Qjh1z-2OdwwoFdQ-58" value="+ field: type" style="text;strokeColor=none;fillColor=none;align=left;verticalAlign=top;spacingLeft=4;spacingRight=4;overflow=hidden;rotatable=0;points=[[0,0.5],[1,0.5]];portConstraint=eastwest;dashed=1;dashPattern=1 4;labelBackgroundColor=none;" parent="azxk0Qjh1z-2OdwwoFdQ-57" vertex="1"><mxGeometry y="26" width="160" height="26" as="geometry"/></mxCell><mxCell id="azxk0Qjh1z-2OdwwoFdQ-59" value="" style="line;strokeWidth=1;fillColor=none;align=left;verticalAlign=middle;spacingTop=-1;spacingLeft=3;spacingRight=3;rotatable=0;labelPosition=right;points=[];portConstraint=eastwest;labelBackgroundColor=none;" parent="azxk0Qjh1z-2OdwwoFdQ-57" vertex="1"><mxGeometry y="52" width="160" height="8" as="geometry"/></mxCell><mxCell id="azxk0Qjh1z-2OdwwoFdQ-60" value="+ method(type): type" style="text;strokeColor=none;fillColor=none;align=left;verticalAlign=top;spacingLeft=4;spacingRight=4;overflow=hidden;rotatable=0;points=[[0,0.5],[1,0.5]];portConstraint=eastwest;dashed=1;dashPattern=1 4;labelBackgroundColor=none;" parent="azxk0Qjh1z-2OdwwoFdQ-57" vertex="1"><mxGeometry y="60" width="160" height="26" as="geometry"/></mxCell><mxCell id="azxk0Qjh1z-2OdwwoFdQ-61" value="LibraryCard" style="swimlane;fontStyle=1;align=center;verticalAlign=top;childLayout=stackLayout;horizontal=1;startSize=26;horizontalStack=0;resizeParent=1;resizeParentMax=0;resizeLast=0;collapsible=1;marginBottom=0;labelBackgroundColor=none;strokeColor=#82b366;strokeWidth=2;fillColor=#d5e8d4;" parent="WIyWlLk6GJQsqaUBKTNV-1" vertex="1"><mxGeometry x="820" y="380" width="160" height="86" as="geometry"/></mxCell><mxCell id="azxk0Qjh1z-2OdwwoFdQ-62" value="+ field: type" style="text;strokeColor=none;fillColor=none;align=left;verticalAlign=top;spacingLeft=4;spacingRight=4;overflow=hidden;rotatable=0;points=[[0,0.5],[1,0.5]];portConstraint=eastwest;dashed=1;dashPattern=1 4;labelBackgroundColor=none;" parent="azxk0Qjh1z-2OdwwoFdQ-61" vertex="1"><mxGeometry y="26" width="160" height="26" as="geometry"/></mxCell><mxCell id="azxk0Qjh1z-2OdwwoFdQ-63" value="" style="line;strokeWidth=1;fillColor=none;align=left;verticalAlign=middle;spacingTop=-1;spacingLeft=3;spacingRight=3;rotatable=0;labelPosition=right;points=[];portConstraint=eastwest;labelBackgroundColor=none;" parent="azxk0Qjh1z-2OdwwoFdQ-61" vertex="1"><mxGeometry y="52" width="160" height="8" as="geometry"/></mxCell><mxCell id="azxk0Qjh1z-2OdwwoFdQ-64" value="+ method(type): type" style="text;strokeColor=none;fillColor=none;align=left;verticalAlign=top;spacingLeft=4;spacingRight=4;overflow=hidden;rotatable=0;points=[[0,0.5],[1,0.5]];portConstraint=eastwest;dashed=1;dashPattern=1 4;labelBackgroundColor=none;" parent="azxk0Qjh1z-2OdwwoFdQ-61" vertex="1"><mxGeometry y="60" width="160" height="26" as="geometry"/></mxCell><mxCell id="azxk0Qjh1z-2OdwwoFdQ-65" value="BarcodeReader" style="swimlane;fontStyle=1;align=center;verticalAlign=top;childLayout=stackLayout;horizontal=1;startSize=26;horizontalStack=0;resizeParent=1;resizeParentMax=0;resizeLast=0;collapsible=1;marginBottom=0;labelBackgroundColor=none;strokeColor=#82b366;strokeWidth=2;fillColor=#d5e8d4;" parent="WIyWlLk6GJQsqaUBKTNV-1" vertex="1"><mxGeometry x="890" y="520" width="160" height="86" as="geometry"/></mxCell><mxCell id="azxk0Qjh1z-2OdwwoFdQ-66" value="+ field: type" style="text;strokeColor=none;fillColor=none;align=left;verticalAlign=top;spacingLeft=4;spacingRight=4;overflow=hidden;rotatable=0;points=[[0,0.5],[1,0.5]];portConstraint=eastwest;dashed=1;dashPattern=1 4;labelBackgroundColor=none;" parent="azxk0Qjh1z-2OdwwoFdQ-65" vertex="1"><mxGeometry y="26" width="160" height="26" as="geometry"/></mxCell><mxCell id="azxk0Qjh1z-2OdwwoFdQ-67" value="" style="line;strokeWidth=1;fillColor=none;align=left;verticalAlign=middle;spacingTop=-1;spacingLeft=3;spacingRight=3;rotatable=0;labelPosition=right;points=[];portConstraint=eastwest;labelBackgroundColor=none;" parent="azxk0Qjh1z-2OdwwoFdQ-65" vertex="1"><mxGeometry y="52" width="160" height="8" as="geometry"/></mxCell><mxCell id="azxk0Qjh1z-2OdwwoFdQ-68" value="+ method(type): type" style="text;strokeColor=none;fillColor=none;align=left;verticalAlign=top;spacingLeft=4;spacingRight=4;overflow=hidden;rotatable=0;points=[[0,0.5],[1,0.5]];portConstraint=eastwest;dashed=1;dashPattern=1 4;labelBackgroundColor=none;" parent="azxk0Qjh1z-2OdwwoFdQ-65" vertex="1"><mxGeometry y="60" width="160" height="26" as="geometry"/></mxCell><mxCell id="azxk0Qjh1z-2OdwwoFdQ-69" value="Rack" style="swimlane;fontStyle=1;align=center;verticalAlign=top;childLayout=stackLayout;horizontal=1;startSize=26;horizontalStack=0;resizeParent=1;resizeParentMax=0;resizeLast=0;collapsible=1;marginBottom=0;labelBackgroundColor=none;strokeColor=#82b366;strokeWidth=2;fillColor=#d5e8d4;" parent="WIyWlLk6GJQsqaUBKTNV-1" vertex="1"><mxGeometry x="170" y="540" width="160" height="86" as="geometry"/></mxCell><mxCell id="azxk0Qjh1z-2OdwwoFdQ-70" value="+ field: type" style="text;strokeColor=none;fillColor=none;align=left;verticalAlign=top;spacingLeft=4;spacingRight=4;overflow=hidden;rotatable=0;points=[[0,0.5],[1,0.5]];portConstraint=eastwest;dashed=1;dashPattern=1 4;labelBackgroundColor=none;" parent="azxk0Qjh1z-2OdwwoFdQ-69" vertex="1"><mxGeometry y="26" width="160" height="26" as="geometry"/></mxCell><mxCell id="azxk0Qjh1z-2OdwwoFdQ-71" value="" style="line;strokeWidth=1;fillColor=none;align=left;verticalAlign=middle;spacingTop=-1;spacingLeft=3;spacingRight=3;rotatable=0;labelPosition=right;points=[];portConstraint=eastwest;labelBackgroundColor=none;" parent="azxk0Qjh1z-2OdwwoFdQ-69" vertex="1"><mxGeometry y="52" width="160" height="8" as="geometry"/></mxCell><mxCell id="azxk0Qjh1z-2OdwwoFdQ-72" value="+ method(type): type" style="text;strokeColor=none;fillColor=none;align=left;verticalAlign=top;spacingLeft=4;spacingRight=4;overflow=hidden;rotatable=0;points=[[0,0.5],[1,0.5]];portConstraint=eastwest;dashed=1;dashPattern=1 4;labelBackgroundColor=none;" parent="azxk0Qjh1z-2OdwwoFdQ-69" vertex="1"><mxGeometry y="60" width="160" height="26" as="geometry"/></mxCell><mxCell id="azxk0Qjh1z-2OdwwoFdQ-73" value="BookReservation" style="swimlane;fontStyle=1;align=center;verticalAlign=top;childLayout=stackLayout;horizontal=1;startSize=26;horizontalStack=0;resizeParent=1;resizeParentMax=0;resizeLast=0;collapsible=1;marginBottom=0;labelBackgroundColor=none;strokeColor=#82b366;strokeWidth=2;fillColor=#d5e8d4;" parent="WIyWlLk6GJQsqaUBKTNV-1" vertex="1"><mxGeometry x="560" y="560" width="160" height="86" as="geometry"/></mxCell><mxCell id="azxk0Qjh1z-2OdwwoFdQ-74" value="+ field: type" style="text;strokeColor=none;fillColor=none;align=left;verticalAlign=top;spacingLeft=4;spacingRight=4;overflow=hidden;rotatable=0;points=[[0,0.5],[1,0.5]];portConstraint=eastwest;dashed=1;dashPattern=1 4;labelBackgroundColor=none;" parent="azxk0Qjh1z-2OdwwoFdQ-73" vertex="1"><mxGeometry y="26" width="160" height="26" as="geometry"/></mxCell><mxCell id="azxk0Qjh1z-2OdwwoFdQ-75" value="" style="line;strokeWidth=1;fillColor=none;align=left;verticalAlign=middle;spacingTop=-1;spacingLeft=3;spacingRight=3;rotatable=0;labelPosition=right;points=[];portConstraint=eastwest;labelBackgroundColor=none;" parent="azxk0Qjh1z-2OdwwoFdQ-73" vertex="1"><mxGeometry y="52" width="160" height="8" as="geometry"/></mxCell><mxCell id="azxk0Qjh1z-2OdwwoFdQ-76" value="+ method(type): type" style="text;strokeColor=none;fillColor=none;align=left;verticalAlign=top;spacingLeft=4;spacingRight=4;overflow=hidden;rotatable=0;points=[[0,0.5],[1,0.5]];portConstraint=eastwest;dashed=1;dashPattern=1 4;labelBackgroundColor=none;" parent="azxk0Qjh1z-2OdwwoFdQ-73" vertex="1"><mxGeometry y="60" width="160" height="26" as="geometry"/></mxCell><mxCell id="azxk0Qjh1z-2OdwwoFdQ-77" value="Catalog" style="swimlane;fontStyle=1;align=center;verticalAlign=top;childLayout=stackLayout;horizontal=1;startSize=26;horizontalStack=0;resizeParent=1;resizeParentMax=0;resizeLast=0;collapsible=1;marginBottom=0;labelBackgroundColor=none;strokeColor=#82b366;strokeWidth=2;fillColor=#d5e8d4;" parent="WIyWlLk6GJQsqaUBKTNV-1" vertex="1"><mxGeometry x="20" y="670" width="160" height="86" as="geometry"/></mxCell><mxCell id="azxk0Qjh1z-2OdwwoFdQ-78" value="+ field: type" style="text;strokeColor=none;fillColor=none;align=left;verticalAlign=top;spacingLeft=4;spacingRight=4;overflow=hidden;rotatable=0;points=[[0,0.5],[1,0.5]];portConstraint=eastwest;dashed=1;dashPattern=1 4;labelBackgroundColor=none;" parent="azxk0Qjh1z-2OdwwoFdQ-77" vertex="1"><mxGeometry y="26" width="160" height="26" as="geometry"/></mxCell><mxCell id="azxk0Qjh1z-2OdwwoFdQ-79" value="" style="line;strokeWidth=1;fillColor=none;align=left;verticalAlign=middle;spacingTop=-1;spacingLeft=3;spacingRight=3;rotatable=0;labelPosition=right;points=[];portConstraint=eastwest;labelBackgroundColor=none;" parent="azxk0Qjh1z-2OdwwoFdQ-77" vertex="1"><mxGeometry y="52" width="160" height="8" as="geometry"/></mxCell><mxCell id="azxk0Qjh1z-2OdwwoFdQ-80" value="+ method(type): type" style="text;strokeColor=none;fillColor=none;align=left;verticalAlign=top;spacingLeft=4;spacingRight=4;overflow=hidden;rotatable=0;points=[[0,0.5],[1,0.5]];portConstraint=eastwest;dashed=1;dashPattern=1 4;labelBackgroundColor=none;" parent="azxk0Qjh1z-2OdwwoFdQ-77" vertex="1"><mxGeometry y="60" width="160" height="26" as="geometry"/></mxCell><mxCell id="azxk0Qjh1z-2OdwwoFdQ-81" value="BookLending" style="swimlane;fontStyle=1;align=center;verticalAlign=top;childLayout=stackLayout;horizontal=1;startSize=26;horizontalStack=0;resizeParent=1;resizeParentMax=0;resizeLast=0;collapsible=1;marginBottom=0;labelBackgroundColor=none;strokeColor=#82b366;strokeWidth=2;fillColor=#d5e8d4;" parent="WIyWlLk6GJQsqaUBKTNV-1" vertex="1"><mxGeometry x="560" y="710" width="160" height="86" as="geometry"/></mxCell><mxCell id="azxk0Qjh1z-2OdwwoFdQ-82" value="+ field: type" style="text;strokeColor=none;fillColor=none;align=left;verticalAlign=top;spacingLeft=4;spacingRight=4;overflow=hidden;rotatable=0;points=[[0,0.5],[1,0.5]];portConstraint=eastwest;dashed=1;dashPattern=1 4;labelBackgroundColor=none;" parent="azxk0Qjh1z-2OdwwoFdQ-81" vertex="1"><mxGeometry y="26" width="160" height="26" as="geometry"/></mxCell><mxCell id="azxk0Qjh1z-2OdwwoFdQ-83" value="" style="line;strokeWidth=1;fillColor=none;align=left;verticalAlign=middle;spacingTop=-1;spacingLeft=3;spacingRight=3;rotatable=0;labelPosition=right;points=[];portConstraint=eastwest;labelBackgroundColor=none;" parent="azxk0Qjh1z-2OdwwoFdQ-81" vertex="1"><mxGeometry y="52" width="160" height="8" as="geometry"/></mxCell><mxCell id="azxk0Qjh1z-2OdwwoFdQ-84" value="+ method(type): type" style="text;strokeColor=none;fillColor=none;align=left;verticalAlign=top;spacingLeft=4;spacingRight=4;overflow=hidden;rotatable=0;points=[[0,0.5],[1,0.5]];portConstraint=eastwest;dashed=1;dashPattern=1 4;labelBackgroundColor=none;" parent="azxk0Qjh1z-2OdwwoFdQ-81" vertex="1"><mxGeometry y="60" width="160" height="26" as="geometry"/></mxCell><mxCell id="azxk0Qjh1z-2OdwwoFdQ-85" value="Fine" style="swimlane;fontStyle=1;align=center;verticalAlign=top;childLayout=stackLayout;horizontal=1;startSize=26;horizontalStack=0;resizeParent=1;resizeParentMax=0;resizeLast=0;collapsible=1;marginBottom=0;labelBackgroundColor=none;strokeColor=#82b366;strokeWidth=2;fillColor=#d5e8d4;" parent="WIyWlLk6GJQsqaUBKTNV-1" vertex="1"><mxGeometry x="560" y="870" width="160" height="86" as="geometry"/></mxCell><mxCell id="azxk0Qjh1z-2OdwwoFdQ-86" value="+ field: type" style="text;strokeColor=none;fillColor=none;align=left;verticalAlign=top;spacingLeft=4;spacingRight=4;overflow=hidden;rotatable=0;points=[[0,0.5],[1,0.5]];portConstraint=eastwest;dashed=1;dashPattern=1 4;labelBackgroundColor=none;" parent="azxk0Qjh1z-2OdwwoFdQ-85" vertex="1"><mxGeometry y="26" width="160" height="26" as="geometry"/></mxCell><mxCell id="azxk0Qjh1z-2OdwwoFdQ-87" value="" style="line;strokeWidth=1;fillColor=none;align=left;verticalAlign=middle;spacingTop=-1;spacingLeft=3;spacingRight=3;rotatable=0;labelPosition=right;points=[];portConstraint=eastwest;labelBackgroundColor=none;" parent="azxk0Qjh1z-2OdwwoFdQ-85" vertex="1"><mxGeometry y="52" width="160" height="8" as="geometry"/></mxCell><mxCell id="azxk0Qjh1z-2OdwwoFdQ-88" value="+ method(type): type" style="text;strokeColor=none;fillColor=none;align=left;verticalAlign=top;spacingLeft=4;spacingRight=4;overflow=hidden;rotatable=0;points=[[0,0.5],[1,0.5]];portConstraint=eastwest;dashed=1;dashPattern=1 4;labelBackgroundColor=none;" parent="azxk0Qjh1z-2OdwwoFdQ-85" vertex="1"><mxGeometry y="60" width="160" height="26" as="geometry"/></mxCell><mxCell id="azxk0Qjh1z-2OdwwoFdQ-89" value="FineTransaction" style="swimlane;fontStyle=1;align=center;verticalAlign=top;childLayout=stackLayout;horizontal=1;startSize=26;horizontalStack=0;resizeParent=1;resizeParentMax=0;resizeLast=0;collapsible=1;marginBottom=0;labelBackgroundColor=none;strokeColor=#82b366;strokeWidth=2;fillColor=#d5e8d4;" parent="WIyWlLk6GJQsqaUBKTNV-1" vertex="1"><mxGeometry x="560" y="1030" width="160" height="86" as="geometry"/></mxCell><mxCell id="azxk0Qjh1z-2OdwwoFdQ-90" value="+ field: type" style="text;strokeColor=none;fillColor=none;align=left;verticalAlign=top;spacingLeft=4;spacingRight=4;overflow=hidden;rotatable=0;points=[[0,0.5],[1,0.5]];portConstraint=eastwest;dashed=1;dashPattern=1 4;labelBackgroundColor=none;" parent="azxk0Qjh1z-2OdwwoFdQ-89" vertex="1"><mxGeometry y="26" width="160" height="26" as="geometry"/></mxCell><mxCell id="azxk0Qjh1z-2OdwwoFdQ-91" value="" style="line;strokeWidth=1;fillColor=none;align=left;verticalAlign=middle;spacingTop=-1;spacingLeft=3;spacingRight=3;rotatable=0;labelPosition=right;points=[];portConstraint=eastwest;labelBackgroundColor=none;" parent="azxk0Qjh1z-2OdwwoFdQ-89" vertex="1"><mxGeometry y="52" width="160" height="8" as="geometry"/></mxCell><mxCell id="azxk0Qjh1z-2OdwwoFdQ-92" value="+ method(type): type" style="text;strokeColor=none;fillColor=none;align=left;verticalAlign=top;spacingLeft=4;spacingRight=4;overflow=hidden;rotatable=0;points=[[0,0.5],[1,0.5]];portConstraint=eastwest;dashed=1;dashPattern=1 4;labelBackgroundColor=none;" parent="azxk0Qjh1z-2OdwwoFdQ-89" vertex="1"><mxGeometry y="60" width="160" height="26" as="geometry"/></mxCell><mxCell id="azxk0Qjh1z-2OdwwoFdQ-93" value="CreditCardTransaction" style="swimlane;fontStyle=1;align=center;verticalAlign=top;childLayout=stackLayout;horizontal=1;startSize=26;horizontalStack=0;resizeParent=1;resizeParentMax=0;resizeLast=0;collapsible=1;marginBottom=0;labelBackgroundColor=none;strokeColor=#82b366;strokeWidth=2;fillColor=#d5e8d4;" parent="WIyWlLk6GJQsqaUBKTNV-1" vertex="1"><mxGeometry x="840" y="920" width="160" height="52" as="geometry"/></mxCell><mxCell id="azxk0Qjh1z-2OdwwoFdQ-94" value="+ field: type" style="text;strokeColor=none;fillColor=none;align=left;verticalAlign=top;spacingLeft=4;spacingRight=4;overflow=hidden;rotatable=0;points=[[0,0.5],[1,0.5]];portConstraint=eastwest;dashed=1;dashPattern=1 4;labelBackgroundColor=none;" parent="azxk0Qjh1z-2OdwwoFdQ-93" vertex="1"><mxGeometry y="26" width="160" height="26" as="geometry"/></mxCell><mxCell id="azxk0Qjh1z-2OdwwoFdQ-97" value="CheckTransaction" style="swimlane;fontStyle=1;align=center;verticalAlign=top;childLayout=stackLayout;horizontal=1;startSize=26;horizontalStack=0;resizeParent=1;resizeParentMax=0;resizeLast=0;collapsible=1;marginBottom=0;labelBackgroundColor=none;strokeColor=#82b366;strokeWidth=2;fillColor=#d5e8d4;" parent="WIyWlLk6GJQsqaUBKTNV-1" vertex="1"><mxGeometry x="840" y="1007" width="160" height="52" as="geometry"/></mxCell><mxCell id="azxk0Qjh1z-2OdwwoFdQ-98" value="+ field: type" style="text;strokeColor=none;fillColor=none;align=left;verticalAlign=top;spacingLeft=4;spacingRight=4;overflow=hidden;rotatable=0;points=[[0,0.5],[1,0.5]];portConstraint=eastwest;dashed=1;dashPattern=1 4;labelBackgroundColor=none;" parent="azxk0Qjh1z-2OdwwoFdQ-97" vertex="1"><mxGeometry y="26" width="160" height="26" as="geometry"/></mxCell><mxCell id="azxk0Qjh1z-2OdwwoFdQ-99" value="CashTransaction" style="swimlane;fontStyle=1;align=center;verticalAlign=top;childLayout=stackLayout;horizontal=1;startSize=26;horizontalStack=0;resizeParent=1;resizeParentMax=0;resizeLast=0;collapsible=1;marginBottom=0;labelBackgroundColor=none;strokeColor=#82b366;strokeWidth=2;fillColor=#d5e8d4;" parent="WIyWlLk6GJQsqaUBKTNV-1" vertex="1"><mxGeometry x="840" y="1100" width="160" height="52" as="geometry"/></mxCell><mxCell id="azxk0Qjh1z-2OdwwoFdQ-100" value="+ field: type" style="text;strokeColor=none;fillColor=none;align=left;verticalAlign=top;spacingLeft=4;spacingRight=4;overflow=hidden;rotatable=0;points=[[0,0.5],[1,0.5]];portConstraint=eastwest;dashed=1;dashPattern=1 4;labelBackgroundColor=none;" parent="azxk0Qjh1z-2OdwwoFdQ-99" vertex="1"><mxGeometry y="26" width="160" height="26" as="geometry"/></mxCell><mxCell id="azxk0Qjh1z-2OdwwoFdQ-101" value="Notification" style="swimlane;fontStyle=1;align=center;verticalAlign=top;childLayout=stackLayout;horizontal=1;startSize=26;horizontalStack=0;resizeParent=1;resizeParentMax=0;resizeLast=0;collapsible=1;marginBottom=0;labelBackgroundColor=none;strokeColor=#82b366;strokeWidth=2;fillColor=#d5e8d4;" parent="WIyWlLk6GJQsqaUBKTNV-1" vertex="1"><mxGeometry x="280" y="900" width="160" height="86" as="geometry"/></mxCell><mxCell id="azxk0Qjh1z-2OdwwoFdQ-102" value="+ field: type" style="text;strokeColor=none;fillColor=none;align=left;verticalAlign=top;spacingLeft=4;spacingRight=4;overflow=hidden;rotatable=0;points=[[0,0.5],[1,0.5]];portConstraint=eastwest;dashed=1;dashPattern=1 4;labelBackgroundColor=none;" parent="azxk0Qjh1z-2OdwwoFdQ-101" vertex="1"><mxGeometry y="26" width="160" height="26" as="geometry"/></mxCell><mxCell id="azxk0Qjh1z-2OdwwoFdQ-103" value="" style="line;strokeWidth=1;fillColor=none;align=left;verticalAlign=middle;spacingTop=-1;spacingLeft=3;spacingRight=3;rotatable=0;labelPosition=right;points=[];portConstraint=eastwest;labelBackgroundColor=none;" parent="azxk0Qjh1z-2OdwwoFdQ-101" vertex="1"><mxGeometry y="52" width="160" height="8" as="geometry"/></mxCell><mxCell id="azxk0Qjh1z-2OdwwoFdQ-104" value="+ method(type): type" style="text;strokeColor=none;fillColor=none;align=left;verticalAlign=top;spacingLeft=4;spacingRight=4;overflow=hidden;rotatable=0;points=[[0,0.5],[1,0.5]];portConstraint=eastwest;dashed=1;dashPattern=1 4;labelBackgroundColor=none;" parent="azxk0Qjh1z-2OdwwoFdQ-101" vertex="1"><mxGeometry y="60" width="160" height="26" as="geometry"/></mxCell><mxCell id="azxk0Qjh1z-2OdwwoFdQ-105" value="EmailNotification" style="swimlane;fontStyle=1;align=center;verticalAlign=top;childLayout=stackLayout;horizontal=1;startSize=26;horizontalStack=0;resizeParent=1;resizeParentMax=0;resizeLast=0;collapsible=1;marginBottom=0;labelBackgroundColor=none;strokeColor=#82b366;strokeWidth=2;fillColor=#d5e8d4;" parent="WIyWlLk6GJQsqaUBKTNV-1" vertex="1"><mxGeometry x="30" y="960" width="160" height="86" as="geometry"/></mxCell><mxCell id="azxk0Qjh1z-2OdwwoFdQ-106" value="+ field: type" style="text;strokeColor=none;fillColor=none;align=left;verticalAlign=top;spacingLeft=4;spacingRight=4;overflow=hidden;rotatable=0;points=[[0,0.5],[1,0.5]];portConstraint=eastwest;dashed=1;dashPattern=1 4;labelBackgroundColor=none;" parent="azxk0Qjh1z-2OdwwoFdQ-105" vertex="1"><mxGeometry y="26" width="160" height="26" as="geometry"/></mxCell><mxCell id="azxk0Qjh1z-2OdwwoFdQ-107" value="" style="line;strokeWidth=1;fillColor=none;align=left;verticalAlign=middle;spacingTop=-1;spacingLeft=3;spacingRight=3;rotatable=0;labelPosition=right;points=[];portConstraint=eastwest;labelBackgroundColor=none;" parent="azxk0Qjh1z-2OdwwoFdQ-105" vertex="1"><mxGeometry y="52" width="160" height="8" as="geometry"/></mxCell><mxCell id="azxk0Qjh1z-2OdwwoFdQ-108" value="+ method(type): type" style="text;strokeColor=none;fillColor=none;align=left;verticalAlign=top;spacingLeft=4;spacingRight=4;overflow=hidden;rotatable=0;points=[[0,0.5],[1,0.5]];portConstraint=eastwest;dashed=1;dashPattern=1 4;labelBackgroundColor=none;" parent="azxk0Qjh1z-2OdwwoFdQ-105" vertex="1"><mxGeometry y="60" width="160" height="26" as="geometry"/></mxCell><mxCell id="azxk0Qjh1z-2OdwwoFdQ-109" value="TextNotification" style="swimlane;fontStyle=1;align=center;verticalAlign=top;childLayout=stackLayout;horizontal=1;startSize=26;horizontalStack=0;resizeParent=1;resizeParentMax=0;resizeLast=0;collapsible=1;marginBottom=0;labelBackgroundColor=none;strokeColor=#82b366;strokeWidth=2;fillColor=#d5e8d4;" parent="WIyWlLk6GJQsqaUBKTNV-1" vertex="1"><mxGeometry x="270" y="1100" width="160" height="86" as="geometry"/></mxCell><mxCell id="azxk0Qjh1z-2OdwwoFdQ-110" value="+ field: type" style="text;strokeColor=none;fillColor=none;align=left;verticalAlign=top;spacingLeft=4;spacingRight=4;overflow=hidden;rotatable=0;points=[[0,0.5],[1,0.5]];portConstraint=eastwest;dashed=1;dashPattern=1 4;labelBackgroundColor=none;" parent="azxk0Qjh1z-2OdwwoFdQ-109" vertex="1"><mxGeometry y="26" width="160" height="26" as="geometry"/></mxCell><mxCell id="azxk0Qjh1z-2OdwwoFdQ-111" value="" style="line;strokeWidth=1;fillColor=none;align=left;verticalAlign=middle;spacingTop=-1;spacingLeft=3;spacingRight=3;rotatable=0;labelPosition=right;points=[];portConstraint=eastwest;labelBackgroundColor=none;" parent="azxk0Qjh1z-2OdwwoFdQ-109" vertex="1"><mxGeometry y="52" width="160" height="8" as="geometry"/></mxCell><mxCell id="azxk0Qjh1z-2OdwwoFdQ-112" value="+ method(type): type" style="text;strokeColor=none;fillColor=none;align=left;verticalAlign=top;spacingLeft=4;spacingRight=4;overflow=hidden;rotatable=0;points=[[0,0.5],[1,0.5]];portConstraint=eastwest;dashed=1;dashPattern=1 4;labelBackgroundColor=none;" parent="azxk0Qjh1z-2OdwwoFdQ-109" vertex="1"><mxGeometry y="60" width="160" height="26" as="geometry"/></mxCell><mxCell id="azxk0Qjh1z-2OdwwoFdQ-113" value="«interface»&lt;br&gt;&lt;b&gt;&lt;u&gt;Search&lt;/u&gt;&lt;/b&gt;" style="html=1;labelBackgroundColor=none;strokeColor=#b85450;strokeWidth=2;fillColor=#f8cecc;" parent="WIyWlLk6GJQsqaUBKTNV-1" vertex="1"><mxGeometry x="270" y="688" width="110" height="50" as="geometry"/></mxCell><mxCell id="azxk0Qjh1z-2OdwwoFdQ-114" value="Extends" style="endArrow=block;endSize=16;endFill=0;html=1;rounded=0;exitX=0;exitY=0.75;exitDx=0;exitDy=0;entryX=1;entryY=0;entryDx=0;entryDy=0;" parent="WIyWlLk6GJQsqaUBKTNV-1" source="azxk0Qjh1z-2OdwwoFdQ-93" target="azxk0Qjh1z-2OdwwoFdQ-89" edge="1"><mxGeometry width="160" relative="1" as="geometry"><mxPoint x="770" y="850" as="sourcePoint"/><mxPoint x="930" y="850" as="targetPoint"/></mxGeometry></mxCell><mxCell id="azxk0Qjh1z-2OdwwoFdQ-115" value="Extends" style="endArrow=block;endSize=16;endFill=0;html=1;rounded=0;exitX=0;exitY=0.5;exitDx=0;exitDy=0;entryX=1;entryY=0.25;entryDx=0;entryDy=0;" parent="WIyWlLk6GJQsqaUBKTNV-1" source="azxk0Qjh1z-2OdwwoFdQ-97" target="azxk0Qjh1z-2OdwwoFdQ-89" edge="1"><mxGeometry width="160" relative="1" as="geometry"><mxPoint x="810" y="1040" as="sourcePoint"/><mxPoint x="710" y="1010" as="targetPoint"/></mxGeometry></mxCell><mxCell id="azxk0Qjh1z-2OdwwoFdQ-116" value="Extends" style="endArrow=block;endSize=16;endFill=0;html=1;rounded=0;exitX=0;exitY=0.115;exitDx=0;exitDy=0;exitPerimeter=0;entryX=0.994;entryY=0.25;entryDx=0;entryDy=0;entryPerimeter=0;" parent="WIyWlLk6GJQsqaUBKTNV-1" source="azxk0Qjh1z-2OdwwoFdQ-100" target="azxk0Qjh1z-2OdwwoFdQ-91" edge="1"><mxGeometry width="160" relative="1" as="geometry"><mxPoint x="680" y="1150" as="sourcePoint"/><mxPoint x="710" y="1010" as="targetPoint"/></mxGeometry></mxCell><mxCell id="azxk0Qjh1z-2OdwwoFdQ-117" value="" style="endArrow=diamondThin;endFill=1;endSize=24;html=1;rounded=0;exitX=0.5;exitY=0;exitDx=0;exitDy=0;metaEdit=1;" parent="WIyWlLk6GJQsqaUBKTNV-1" source="azxk0Qjh1z-2OdwwoFdQ-89" target="azxk0Qjh1z-2OdwwoFdQ-85" edge="1"><mxGeometry width="160" relative="1" as="geometry"><mxPoint x="590" y="950" as="sourcePoint"/><mxPoint x="520" y="950" as="targetPoint"/></mxGeometry></mxCell><mxCell id="azxk0Qjh1z-2OdwwoFdQ-119" value="1" style="edgeLabel;html=1;align=center;verticalAlign=middle;resizable=0;points=[];" parent="azxk0Qjh1z-2OdwwoFdQ-117" vertex="1" connectable="0"><mxGeometry x="0.4688" y="-3" relative="1" as="geometry"><mxPoint x="7" y="-3" as="offset"/></mxGeometry></mxCell><mxCell id="azxk0Qjh1z-2OdwwoFdQ-120" value="&lt;font style=&quot;font-size: 11px&quot;&gt;1&lt;/font&gt;" style="text;html=1;align=center;verticalAlign=middle;resizable=0;points=[];autosize=1;strokeColor=none;fillColor=none;" parent="WIyWlLk6GJQsqaUBKTNV-1" vertex="1"><mxGeometry x="640" y="1010" width="20" height="20" as="geometry"/></mxCell><mxCell id="azxk0Qjh1z-2OdwwoFdQ-121" value="" style="endArrow=none;html=1;rounded=0;fontSize=11;" parent="WIyWlLk6GJQsqaUBKTNV-1" source="azxk0Qjh1z-2OdwwoFdQ-85" target="azxk0Qjh1z-2OdwwoFdQ-81" edge="1"><mxGeometry width="50" height="50" relative="1" as="geometry"><mxPoint x="390" y="840" as="sourcePoint"/><mxPoint x="440" y="790" as="targetPoint"/></mxGeometry></mxCell><mxCell id="azxk0Qjh1z-2OdwwoFdQ-122" value="1" style="edgeLabel;html=1;align=center;verticalAlign=middle;resizable=0;points=[];" parent="WIyWlLk6GJQsqaUBKTNV-1" vertex="1" connectable="0"><mxGeometry x="660" y="960" as="geometry"><mxPoint x="-12" y="-150" as="offset"/></mxGeometry></mxCell><mxCell id="azxk0Qjh1z-2OdwwoFdQ-124" value="0..1" style="text;html=1;align=center;verticalAlign=middle;resizable=0;points=[];autosize=1;strokeColor=none;fillColor=none;fontSize=11;" parent="WIyWlLk6GJQsqaUBKTNV-1" vertex="1"><mxGeometry x="635" y="850" width="30" height="20" as="geometry"/></mxCell><mxCell id="azxk0Qjh1z-2OdwwoFdQ-128" value="" style="endArrow=none;html=1;rounded=0;fontSize=11;exitX=0;exitY=0;exitDx=0;exitDy=0;entryX=0;entryY=0.5;entryDx=0;entryDy=0;" parent="WIyWlLk6GJQsqaUBKTNV-1" source="azxk0Qjh1z-2OdwwoFdQ-85" target="azxk0Qjh1z-2OdwwoFdQ-74" edge="1"><mxGeometry width="50" height="50" relative="1" as="geometry"><mxPoint x="820" y="830" as="sourcePoint"/><mxPoint x="730" y="610" as="targetPoint"/><Array as="points"><mxPoint x="510" y="710"/></Array></mxGeometry></mxCell><mxCell id="azxk0Qjh1z-2OdwwoFdQ-129" value="1" style="edgeLabel;html=1;align=center;verticalAlign=middle;resizable=0;points=[];fontSize=11;" parent="azxk0Qjh1z-2OdwwoFdQ-128" vertex="1" connectable="0"><mxGeometry x="-0.5" y="-3" relative="1" as="geometry"><mxPoint x="-38" y="70" as="offset"/></mxGeometry></mxCell><mxCell id="azxk0Qjh1z-2OdwwoFdQ-130" value="1" style="edgeLabel;html=1;align=center;verticalAlign=middle;resizable=0;points=[];fontSize=11;" parent="azxk0Qjh1z-2OdwwoFdQ-128" vertex="1" connectable="0"><mxGeometry x="0.9037" relative="1" as="geometry"><mxPoint y="-11" as="offset"/></mxGeometry></mxCell><mxCell id="azxk0Qjh1z-2OdwwoFdQ-131" value="" style="endArrow=none;html=1;rounded=0;fontSize=11;exitX=1;exitY=0.5;exitDx=0;exitDy=0;entryX=1;entryY=0.25;entryDx=0;entryDy=0;" parent="WIyWlLk6GJQsqaUBKTNV-1" source="azxk0Qjh1z-2OdwwoFdQ-86" target="azxk0Qjh1z-2OdwwoFdQ-57" edge="1"><mxGeometry width="50" height="50" relative="1" as="geometry"><mxPoint x="730" y="880" as="sourcePoint"/><mxPoint x="730" y="609" as="targetPoint"/><Array as="points"><mxPoint x="830" y="720"/></Array></mxGeometry></mxCell><mxCell id="azxk0Qjh1z-2OdwwoFdQ-132" value="*" style="edgeLabel;html=1;align=center;verticalAlign=middle;resizable=0;points=[];fontSize=11;" parent="azxk0Qjh1z-2OdwwoFdQ-131" vertex="1" connectable="0"><mxGeometry x="-0.5" y="-3" relative="1" as="geometry"><mxPoint x="-62" y="119" as="offset"/></mxGeometry></mxCell><mxCell id="azxk0Qjh1z-2OdwwoFdQ-133" value="1" style="edgeLabel;html=1;align=center;verticalAlign=middle;resizable=0;points=[];fontSize=11;" parent="azxk0Qjh1z-2OdwwoFdQ-131" vertex="1" connectable="0"><mxGeometry x="0.9037" relative="1" as="geometry"><mxPoint y="-17" as="offset"/></mxGeometry></mxCell><mxCell id="azxk0Qjh1z-2OdwwoFdQ-134" value="Extends" style="endArrow=block;endSize=16;endFill=0;html=1;rounded=0;exitX=1;exitY=0.5;exitDx=0;exitDy=0;entryX=0;entryY=0.5;entryDx=0;entryDy=0;" parent="WIyWlLk6GJQsqaUBKTNV-1" source="azxk0Qjh1z-2OdwwoFdQ-78" target="azxk0Qjh1z-2OdwwoFdQ-113" edge="1"><mxGeometry width="160" relative="1" as="geometry"><mxPoint x="850" y="969" as="sourcePoint"/><mxPoint x="730" y="1040" as="targetPoint"/></mxGeometry></mxCell><mxCell id="azxk0Qjh1z-2OdwwoFdQ-135" value="Extends" style="endArrow=block;endSize=16;endFill=0;html=1;rounded=0;exitX=1;exitY=0.5;exitDx=0;exitDy=0;entryX=-0.019;entryY=-0.115;entryDx=0;entryDy=0;entryPerimeter=0;" parent="WIyWlLk6GJQsqaUBKTNV-1" source="azxk0Qjh1z-2OdwwoFdQ-106" target="azxk0Qjh1z-2OdwwoFdQ-104" edge="1"><mxGeometry width="160" relative="1" as="geometry"><mxPoint x="270" y="885" as="sourcePoint"/><mxPoint x="150" y="956" as="targetPoint"/></mxGeometry></mxCell><mxCell id="azxk0Qjh1z-2OdwwoFdQ-136" value="Extends" style="endArrow=block;endSize=16;endFill=0;html=1;rounded=0;exitX=0.5;exitY=0;exitDx=0;exitDy=0;entryX=0.45;entryY=1.115;entryDx=0;entryDy=0;entryPerimeter=0;" parent="WIyWlLk6GJQsqaUBKTNV-1" source="azxk0Qjh1z-2OdwwoFdQ-109" target="azxk0Qjh1z-2OdwwoFdQ-104" edge="1"><mxGeometry width="160" relative="1" as="geometry"><mxPoint x="870" y="989" as="sourcePoint"/><mxPoint x="750" y="1060" as="targetPoint"/></mxGeometry></mxCell></root></mxGraphModel></diagram></mxfile>